<?xml version="1.0" encoding="utf-8"?>
<!-- Generator: Adobe Illustrator 21.0.0, SVG Export Plug-In . SVG Version: 6.00 Build 0)  -->
<svg version="1.1" xmlns="http://www.w3.org/2000/svg" xmlns:xlink="http://www.w3.org/1999/xlink" x="0px" y="0px"
	 viewBox="0 0 350 450" style="enable-background:new 0 0 350 450;" xml:space="preserve">
<style type="text/css">
	.st0{display:none;}
	.st1{display:inline;}
	.st2{fill:#242021;}
	.st3{fill:none;stroke:#010101;stroke-width:0.5;stroke-linejoin:round;stroke-dasharray:2,1;}
	.st4{fill:none;stroke:#010101;stroke-linecap:round;stroke-linejoin:round;}
	.st5{fill:none;stroke:#010101;stroke-width:0.75;stroke-linejoin:round;}
	.st6{fill:none;stroke:#010101;stroke-linejoin:round;}
	.st7{fill:none;stroke:#010101;stroke-width:0.6;stroke-linejoin:round;}
</style>
<g id="Layer_1" class="st0">
	<g class="st1">
		<g>
			<g>
				<g>
					<path class="st2" d="M44.4,411.7l-0.5-164.7c-0.1-54.9,0.1-109.8,1.2-164.7c-0.4,30.4-0.4,60.8-0.3,91.2
						c-0.2,47.2-0.1,94.4,0.1,141.6L44.4,411.7z"/>
				</g>
			</g>
		</g>
		<g>
			<g>
				<g>
					<path class="st2" d="M124.8,411.7l0.5-164.7c0.1-54.9-0.1-109.8-1.2-164.6c0.9,30.4,1.5,60.8,2,91.2
						c0.2,47.2,0.1,94.4-0.1,141.6L124.8,411.7z"/>
				</g>
			</g>
		</g>
	</g>
	<g class="st1">
		<g>
			<path class="st3" d="M24.2,405.9c0,2,16.4,5.9,20.2,5.9c4.8,0,21.7-3.8,21.7-6.2"/>
			<path class="st3" d="M145.7,405.9c0,2-16.4,5.9-20.2,5.9c-4.8,0-21.7-3.8-21.7-6.2"/>
		</g>
		<g>
			<g>
				<g>
					<line class="st4" x1="85.9" y1="78.2" x2="88.6" y2="78.2"/>
					<line class="st4" x1="94.4" y1="73.7" x2="95.6" y2="70.7"/>
					<path class="st3" d="M96.1,38.8v29.2c0,5.1-3.6,10.4-10.6,10.4"/>
				</g>
				<line class="st5" x1="85.4" y1="38.5" x2="85.4" y2="118.9"/>
				<line class="st3" x1="87.5" y1="38.5" x2="87.5" y2="117.3"/>
			</g>
			<g>
				<g>
					<g>
						<path class="st2" d="M96,107.7c-0.9,0.9-2,1.5-3.1,2.2c-1.1,0.6-2.2,1.2-3.3,1.7c-2.2,1.1-4.5,2.1-6.7,3.1l-6.8,3
							c-2.2,1-4.5,1.9-6.7,3.1c-0.1,0.1-0.2,0.2-0.4,0.2c0,0-0.1,0.1-0.1,0.1c0,0,0,0,0-0.1c0-0.1-0.1-0.2-0.1-0.2c0,0,0.2,0,0.3,0
							c0.1,0,0.3,0,0.4,0c0.6-0.1,1.2-0.2,1.8-0.3c1.2-0.2,2.4-0.5,3.6-0.8c2.4-0.6,4.8-1.2,7.2-1.8c4.8-1.3,9.5-2.6,14.3-3.9
							l14.2-4l1.8-0.5l0.2-0.1l0,0l0,0c0.2,0-0.5,0,0.1,0.5c0.1,0,0,0-0.1,0l-0.4,0.1l-0.9,0.2l-3.6,1c-2.4,0.7-4.7,1.4-7.1,2.2
							c-4.7,1.5-9.3,3.1-13.9,4.9c-2.3,0.9-4.5,1.9-6.7,3c-1.1,0.6-2.2,1.2-3.2,1.8c-1,0.7-2,1.4-2.6,2.4c0.7-1.1,1.8-1.9,2.9-2.6
							c1.1-0.7,2.3-1.4,3.5-2c2.4-1.2,4.9-2.3,7.5-3.4c5.1-2.1,10.2-3.9,15.4-5.6c2-0.6,4.1-1.2,6.1-1.8l1.5-0.4l0.8-0.2l0.4-0.1
							l0.2,0l0.1,0l0,0c-0.2-0.1,0.4,0,0.3,0.3c0,0.1-0.2,0.2-0.2,0.2l0,0l-0.1,0l-3.1,0.9l-12.2,3.4c-8.2,2.2-16.3,4.6-24.6,6.5
							c-0.7,0.1-1.4,0.3-2.1,0.4c-0.4,0.1-0.7,0.1-1.1,0.2c-0.2,0-0.4,0-0.6,0c-0.1,0-0.2,0-0.3,0c-0.1,0-0.1,0-0.2-0.1
							c0,0-0.1-0.1-0.1-0.2c0-0.1,0-0.2,0-0.2c0.2-0.3,0.3-0.3,0.5-0.5c0.2-0.1,0.3-0.2,0.5-0.3c0.3-0.2,0.6-0.3,1-0.5
							c0.7-0.3,1.3-0.6,2-0.9c2.7-1.2,5.3-2.2,8-3.4c2.7-1.1,5.3-2.2,8-3.4c1.3-0.6,2.6-1.2,3.9-1.9C93.5,109.4,94.8,108.8,96,107.7
							z"/>
					</g>
				</g>
			</g>
			<g>
				<path class="st6" d="M22.2,33c-4.2,15.5-11.1,43.3-12,60.2c-1.2,24.3,4.8,114.4,6.5,150c1.8,36.3,5.2,92.2,7.5,167.6
					c0,2,16.4,5.9,20.2,5.9c7.5,0,21.4-3.8,21.4-6.2c2.1-72.6,6.5-130.3,7.8-166.3c1.5-42.7,9.1-117.7,11.2-126.3"/>
				<path class="st6" d="M147.7,33c4.2,15.5,11.1,43.3,12,60.2c1.2,24.3-4.8,114.4-6.5,150c-1.8,36.3-5.2,92.2-7.5,167.6
					c0,2-16.4,5.9-20.2,5.9c-7.5,0-21.4-3.8-21.4-6.2c-2.1-72.6-6.5-130.3-7.8-166.3c-1.5-42.7-9.1-117.7-11.2-126.3"/>
			</g>
			<g>
				<g>
					<path class="st7" d="M62.3,412.9c2.3-75.7,6.4-134.2,8.3-168.8c2.3-43.5,9.5-113.5,14.3-128.6"/>
				</g>
				<g>
					<path class="st7" d="M107.7,412.9c-2.3-75.7-6.4-134.2-8.3-168.8c-2.3-43.5-9.5-113.5-14.3-128.6"/>
				</g>
			</g>
		</g>
		<g>
			<g>
				<path class="st7" d="M26.7,34.2c-4.2,15.5-11.4,43.5-12.2,60.3c-1.2,24.3,5,114.3,6.7,149.9c1.8,36.3,4.5,93.3,6.8,168.8"/>
				<path class="st3" d="M24.4,33.8C20.2,49.3,13,77.3,12.2,94.2c-1.2,24.3,5,114.3,6.7,149.9c1.8,36.3,4.5,93.3,6.8,168.8"/>
			</g>
			<g>
				<path class="st7" d="M143.2,34.2c4.2,15.5,11.4,43.5,12.2,60.3c1.2,24.3-5,114.3-6.7,149.9c-1.8,36.3-4.5,93.3-6.8,168.8"/>
				<path class="st3" d="M145.6,33.8c4.2,15.5,11.4,43.5,12.2,60.3c1.2,24.3-5,114.3-6.7,149.9c-1.8,36.3-4.5,93.3-6.8,168.8"/>
			</g>
		</g>
	</g>
	<g class="st1">
		<g>
			<path class="st3" d="M204.2,405.9c0,2,16.4,5.9,20.2,5.9c4.8,0,21.7-3.8,21.7-6.2"/>
			<path class="st3" d="M325.7,405.9c0,2-16.4,5.9-20.2,5.9c-4.8,0-21.7-3.8-21.7-6.2"/>
		</g>
		<g>
			<g>
				<line class="st5" x1="264.9" y1="33.3" x2="264.9" y2="118.9"/>
				<line class="st3" x1="262.9" y1="33.3" x2="262.9" y2="118.3"/>
			</g>
			<g>
				<g>
					<g>
						<path class="st2" d="M276,107.7c-0.9,0.9-2,1.5-3.1,2.2c-1.1,0.6-2.2,1.2-3.3,1.7c-2.2,1.1-4.5,2.1-6.7,3.1l-6.8,3
							c-2.2,1-4.5,1.9-6.7,3.1c-0.1,0.1-0.2,0.2-0.4,0.2c0,0-0.1,0.1-0.1,0.1c0,0,0,0,0-0.1c0-0.1-0.1-0.2-0.1-0.2c0,0,0.2,0,0.3,0
							c0.1,0,0.3,0,0.4,0c0.6-0.1,1.2-0.2,1.8-0.3c1.2-0.2,2.4-0.5,3.6-0.8c2.4-0.6,4.8-1.2,7.2-1.8c4.8-1.3,9.5-2.6,14.3-3.9
							l14.2-4l1.8-0.5l0.2-0.1l0,0l0,0c0.2,0-0.5,0,0.1,0.5c0.1,0,0,0-0.1,0l-0.4,0.1l-0.9,0.2l-3.6,1c-2.4,0.7-4.7,1.4-7.1,2.2
							c-4.7,1.5-9.3,3.1-13.9,4.9c-2.3,0.9-4.5,1.9-6.7,3c-1.1,0.6-2.2,1.2-3.2,1.8c-1,0.7-2,1.4-2.6,2.4c0.7-1.1,1.8-1.9,2.9-2.6
							c1.1-0.7,2.3-1.4,3.5-2c2.4-1.2,4.9-2.3,7.5-3.4c5.1-2.1,10.2-3.9,15.4-5.6c2-0.6,4.1-1.2,6.1-1.8l1.5-0.4l0.8-0.2l0.4-0.1
							l0.2,0l0.1,0l0,0c-0.2-0.1,0.4,0,0.3,0.3c0,0.1-0.2,0.2-0.2,0.2l0,0l-0.1,0l-3.1,0.9l-12.2,3.4c-8.2,2.2-16.3,4.6-24.6,6.5
							c-0.7,0.1-1.4,0.3-2.1,0.4c-0.4,0.1-0.7,0.1-1.1,0.2c-0.2,0-0.4,0-0.6,0c-0.1,0-0.2,0-0.3,0c-0.1,0-0.1,0-0.2-0.1
							c0,0-0.1-0.1-0.1-0.2c0-0.1,0-0.2,0-0.2c0.2-0.3,0.3-0.3,0.5-0.5c0.2-0.1,0.3-0.2,0.5-0.3c0.3-0.2,0.6-0.3,1-0.5
							c0.7-0.3,1.3-0.6,2-0.9c2.7-1.2,5.3-2.2,8-3.4c2.7-1.1,5.3-2.2,8-3.4c1.3-0.6,2.6-1.2,3.9-1.9
							C273.5,109.4,274.8,108.8,276,107.7z"/>
					</g>
				</g>
			</g>
			<g>
				<path class="st6" d="M202.2,33c-4.2,15.5-11.1,43.3-12,60.2c-1.2,24.3,4.8,114.4,6.5,150c1.8,36.3,5.2,92.2,7.5,167.6
					c0,2,16.4,5.9,20.2,5.9c7.5,0,21.4-3.8,21.4-6.2c2.1-72.6,6.5-130.3,7.8-166.3c1.5-42.7,9.1-117.7,11.2-126.3"/>
				<path class="st6" d="M327.7,33c4.2,15.5,11.1,43.3,12,60.2c1.2,24.3-4.8,114.4-6.5,150c-1.8,36.3-5.2,92.2-7.5,167.6
					c0,2-16.4,5.9-20.2,5.9c-7.5,0-21.4-3.8-21.4-6.2c-2.1-72.6-6.5-130.3-7.8-166.3c-1.5-42.7-9.1-117.7-11.2-126.3"/>
			</g>
		</g>
	</g>
</g>
<g id="Layer_2">
	<g>
		<g>
			<path class="st3" d="M114.2,405.9c0,2,16.4,5.9,20.2,5.9c4.8,0,21.7-3.8,21.7-6.2"/>
			<path class="st3" d="M235.7,405.9c0,2-16.4,5.9-20.2,5.9c-4.8,0-21.7-3.8-21.7-6.2"/>
		</g>
		<g>
			<g>
				<line class="st5" x1="174.9" y1="33.3" x2="174.9" y2="118.9"/>
				<line class="st3" x1="172.9" y1="33.3" x2="172.9" y2="118.3"/>
			</g>
			<g>
				<g>
					<g>
						<path class="st2" d="M186,107.7c-0.9,0.9-2,1.5-3.1,2.2c-1.1,0.6-2.2,1.2-3.3,1.7c-2.2,1.1-4.5,2.1-6.7,3.1l-6.8,3
							c-2.2,1-4.5,1.9-6.7,3.1c-0.1,0.1-0.2,0.2-0.4,0.2c0,0-0.1,0.1-0.1,0.1c0,0,0,0,0-0.1c0-0.1-0.1-0.2-0.1-0.2c0,0,0.2,0,0.3,0
							c0.1,0,0.3,0,0.4,0c0.6-0.1,1.2-0.2,1.8-0.3c1.2-0.2,2.4-0.5,3.6-0.8c2.4-0.6,4.8-1.2,7.2-1.8c4.8-1.3,9.5-2.6,14.3-3.9
							l14.2-4l1.8-0.5l0.2-0.1l0,0l0,0c0.2,0-0.5,0,0.1,0.5c0.1,0,0,0-0.1,0l-0.4,0.1l-0.9,0.2l-3.6,1c-2.4,0.7-4.7,1.4-7.1,2.2
							c-4.7,1.5-9.3,3.1-13.9,4.9c-2.3,0.9-4.5,1.9-6.7,3c-1.1,0.6-2.2,1.2-3.2,1.8c-1,0.7-2,1.4-2.6,2.4c0.7-1.1,1.8-1.9,2.9-2.6
							c1.1-0.7,2.3-1.4,3.5-2c2.4-1.2,4.9-2.3,7.5-3.4c5.1-2.1,10.2-3.9,15.4-5.6c2-0.6,4.1-1.2,6.1-1.8l1.5-0.4l0.8-0.2l0.4-0.1
							l0.2,0l0.1,0l0,0c-0.2-0.1,0.4,0,0.3,0.3c0,0.1-0.2,0.2-0.2,0.2l0,0l-0.1,0l-3.1,0.9l-12.2,3.4c-8.2,2.2-16.3,4.6-24.6,6.5
							c-0.7,0.1-1.4,0.3-2.1,0.4c-0.4,0.1-0.7,0.1-1.1,0.2c-0.2,0-0.4,0-0.6,0c-0.1,0-0.2,0-0.3,0c-0.1,0-0.1,0-0.2-0.1
							c0,0-0.1-0.1-0.1-0.2c0-0.1,0-0.2,0-0.2c0.2-0.3,0.3-0.3,0.5-0.5c0.2-0.1,0.3-0.2,0.5-0.3c0.3-0.2,0.6-0.3,1-0.5
							c0.7-0.3,1.3-0.6,2-0.9c2.7-1.2,5.3-2.2,8-3.4c2.7-1.1,5.3-2.2,8-3.4c1.3-0.6,2.6-1.2,3.9-1.9
							C183.5,109.4,184.8,108.8,186,107.7z"/>
					</g>
				</g>
			</g>
			<g>
				<path class="st6" d="M112.2,33c-4.2,15.5-11.1,43.3-12,60.2c-1.2,24.3,4.8,114.4,6.5,150c1.8,36.3,5.2,92.2,7.5,167.6
					c0,2,16.4,5.9,20.2,5.9c7.5,0,21.4-3.8,21.4-6.2c2.1-72.6,6.5-130.3,7.8-166.3c1.5-42.7,9.1-117.7,11.2-126.3"/>
				<path class="st6" d="M237.7,33c4.2,15.5,11.1,43.3,12,60.2c1.2,24.3-4.8,114.4-6.5,150c-1.8,36.3-5.2,92.2-7.5,167.6
					c0,2-16.4,5.9-20.2,5.9c-7.5,0-21.4-3.8-21.4-6.2c-2.1-72.6-6.5-130.3-7.8-166.3c-1.5-42.7-9.1-117.7-11.2-126.3"/>
			</g>
		</g>
	</g>
</g>
</svg>
