<?xml version="1.0" encoding="utf-8"?>
<!-- Generator: Adobe Illustrator 21.0.0, SVG Export Plug-In . SVG Version: 6.00 Build 0)  -->
<svg version="1.1" xmlns="http://www.w3.org/2000/svg" xmlns:xlink="http://www.w3.org/1999/xlink" x="0px" y="0px"
	 viewBox="0 0 350 450" style="enable-background:new 0 0 350 450;" xml:space="preserve">
<style type="text/css">
	.st0{fill:none;stroke:#010101;stroke-linejoin:round;}
	.st1{fill:none;stroke:#010101;stroke-width:0.5;stroke-linejoin:round;stroke-dasharray:1.9805,0.9903;}
	.st2{fill:none;stroke:#010101;stroke-width:0.75;stroke-linejoin:round;}
	.st3{fill:none;stroke:#000000;stroke-linejoin:round;}
	.st4{fill:none;stroke:#000000;stroke-width:0.5;stroke-linejoin:round;stroke-dasharray:2,1;}
	.st5{display:none;}
	.st6{display:inline;}
	.st7{fill:none;stroke:#010101;stroke-width:0.5;stroke-linejoin:round;stroke-dasharray:2,1;}
	.st8{fill:none;stroke:#009245;stroke-linejoin:round;}
	.st9{fill:none;stroke:#009245;stroke-width:0.5;stroke-linejoin:round;stroke-dasharray:2,1;}
</style>
<g id="Layer_1">
	<g>
		<g>
			<path class="st0" d="M110.5,194c1.9,13.1,9.4,26.5,9.3,53.8c-0.1,23.7-5.4,37.5-13.3,68.7"/>
			<path class="st0" d="M240.2,194c-1.9,13.1-9.4,26.5-9.3,53.8c0.1,23.7,5.4,37.7,13.3,68.8"/>
		</g>
		<g>
			<g>
				<path class="st0" d="M234.7,123.7c0,0-10.8,54.6,5.6,70.7"/>
				<line class="st0" x1="203" y1="112.1" x2="235.1" y2="123.9"/>
				<path class="st0" d="M116,123.7c0,0,10.8,54.6-5.6,70.7"/>
				<line class="st0" x1="147.6" y1="112.1" x2="115.6" y2="123.9"/>
			</g>
			<g>
				<g>
					<g>
						<path class="st1" d="M232.2,122.9c-1.8,10.8-10.3,60.3,7.8,74.5"/>
					</g>
				</g>
				<g>
					<g>
						<path class="st1" d="M118.5,122.8c2.5,14.5,9.3,60.7-7.5,74.1"/>
					</g>
				</g>
			</g>
			<g>
				<line class="st2" x1="202.9" y1="115.5" x2="233.7" y2="126.7"/>
				<line class="st2" x1="147.8" y1="115.5" x2="117" y2="126.7"/>
			</g>
		</g>
	</g>
	<g>
		<path class="st3" d="M106.4,315.9c24.7,7.1,29,22.7,69.7,22.7c41.8,0,44.7-15.1,68.3-22.7"/>
		<path class="st4" d="M106.7,313.2c24.4,7.1,28.6,22.7,69,22.7c41.4,0,44.2-15.1,67.6-22.7"/>
	</g>
</g>
<g id="Layer_2" class="st5">
	<g class="st6">
		<g>
			<path class="st0" d="M195.4,194c1.9,13.1,9.4,26.5,9.3,53.8c-0.1,23.7-5.5,37.6-13.4,68.8"/>
			<path class="st0" d="M325.2,194c-1.9,13.1-9.4,26.5-9.3,53.8c0.1,23.7,5.4,37.7,13.3,68.8"/>
		</g>
		<g>
			<path class="st0" d="M201,123.7c0,0,8.2,50.3-5.6,70.7"/>
			<line class="st0" x1="232.6" y1="112.1" x2="200.6" y2="123.9"/>
			<path class="st7" d="M203.7,122.3c0,0,8.7,58-7.7,75.5"/>
			<path class="st0" d="M319.7,123.7c0,0-8.2,50.3,5.6,70.7"/>
			<line class="st0" x1="288" y1="112.1" x2="320.1" y2="123.9"/>
			<path class="st7" d="M317,122.3c0,0-8.7,58,7.7,75.5"/>
		</g>
	</g>
	<g class="st6">
		<g>
			<path class="st0" d="M24.5,194c1.9,13.1,9.4,26.5,9.3,53.8c-0.1,23.7-5.4,37.5-13.3,68.7"/>
			<path class="st0" d="M154.2,194c-1.9,13.1-9.4,26.5-9.3,53.8c0.1,23.7,5.4,37.7,13.3,68.8"/>
		</g>
		<g>
			<g>
				<path class="st0" d="M148.7,123.7c0,0-10.8,54.6,5.6,70.7"/>
				<line class="st0" x1="117" y1="112.1" x2="149.1" y2="123.9"/>
				<path class="st0" d="M30,123.7c0,0,10.8,54.6-5.6,70.7"/>
				<line class="st0" x1="61.6" y1="112.1" x2="29.6" y2="123.9"/>
			</g>
			<g>
				<g>
					<g>
						<path class="st1" d="M146.2,122.9c-1.8,10.8-10.3,60.3,7.8,74.5"/>
					</g>
				</g>
				<g>
					<g>
						<path class="st1" d="M32.5,122.8c2.5,14.5,9.3,60.7-7.5,74.1"/>
					</g>
				</g>
			</g>
			<g>
				<line class="st2" x1="116.9" y1="115.5" x2="147.7" y2="126.7"/>
				<line class="st2" x1="61.8" y1="115.5" x2="31" y2="126.7"/>
			</g>
		</g>
	</g>
	<g class="st6">
		<path class="st8" d="M20.4,315.9c24.7,7.1,29,22.7,69.7,22.7c41.8,0,44.7-15.1,68.3-22.7"/>
		<path class="st9" d="M20.7,313.2c24.4,7.1,28.6,22.7,69,22.7c41.4,0,44.2-15.1,67.6-22.7"/>
	</g>
	<g class="st6">
		<path class="st8" d="M191.4,316.3c0,0,23.9,5.3,68.7,5.3c45.4,0.2,69.3-5.3,69.3-5.3"/>
		<path class="st9" d="M192.1,313.3c0,0,23.7,5.3,68,5.3c45,0.2,68.6-5.3,68.6-5.3"/>
	</g>
</g>
<g id="Layer_3" class="st5">
	<g class="st6">
		<g>
			<path class="st0" d="M110.4,194c1.9,13.1,9.4,26.5,9.3,53.8c-0.1,23.7-5.5,37.6-13.4,68.8"/>
			<path class="st0" d="M240.2,194c-1.9,13.1-9.4,26.5-9.3,53.8c0.1,23.7,5.4,37.7,13.3,68.8"/>
		</g>
		<g>
			<path class="st0" d="M116,123.7c0,0,8.2,50.3-5.6,70.7"/>
			<line class="st0" x1="147.6" y1="112.1" x2="115.6" y2="123.9"/>
			<path class="st7" d="M118.7,122.3c0,0,8.7,58-7.7,75.5"/>
			<path class="st0" d="M234.7,123.7c0,0-8.2,50.3,5.6,70.7"/>
			<line class="st0" x1="203" y1="112.1" x2="235.1" y2="123.9"/>
			<path class="st7" d="M232,122.3c0,0-8.7,58,7.7,75.5"/>
		</g>
	</g>
	<g class="st6">
		<path class="st8" d="M106.4,316.3c0,0,23.9,5.3,68.7,5.3c45.4,0.2,69.3-5.3,69.3-5.3"/>
		<path class="st9" d="M107.1,313.3c0,0,23.7,5.3,68,5.3c45,0.2,68.6-5.3,68.6-5.3"/>
	</g>
</g>
</svg>
