<?xml version="1.0" encoding="utf-8"?>
<!-- Generator: Adobe Illustrator 21.0.0, SVG Export Plug-In . SVG Version: 6.00 Build 0)  -->
<svg version="1.1" xmlns="http://www.w3.org/2000/svg" xmlns:xlink="http://www.w3.org/1999/xlink" x="0px" y="0px"
	 viewBox="0 0 350 450" style="enable-background:new 0 0 350 450;" xml:space="preserve">
<style type="text/css">
	.st0{display:none;}
	.st1{display:inline;}
	.st2{fill:none;stroke:#010101;stroke-linejoin:round;}
	.st3{fill:none;stroke:#010101;stroke-width:0.5;stroke-linejoin:round;stroke-dasharray:1.9805,0.9903;}
	.st4{fill:none;stroke:#010101;stroke-width:0.75;stroke-linejoin:round;}
	.st5{fill:none;stroke:#000000;stroke-linejoin:round;}
	.st6{fill:none;stroke:#000000;stroke-width:0.5;stroke-linejoin:round;stroke-dasharray:2,1;}
	.st7{fill:#010101;}
	.st8{fill:none;stroke:#000002;stroke-linejoin:round;}
	.st9{fill:none;stroke:#000002;stroke-width:0.5;stroke-linejoin:round;stroke-dasharray:2,1;}
	.st10{fill:none;stroke:#010101;stroke-width:0.5;stroke-linejoin:round;stroke-dasharray:2,1;}
	.st11{fill:#F2F2F2;stroke:#010101;stroke-linejoin:round;}
	.st12{fill:none;stroke:#010101;stroke-width:0.5;stroke-linejoin:round;}
	.st13{fill:#141111;stroke:#141111;stroke-width:6.250000e-03;}
	.st14{fill:#091515;stroke:#091515;stroke-width:6.250000e-03;}
	.st15{fill:#010202;}
	.st16{fill:#141111;stroke:#141111;stroke-width:1.250000e-02;}
	.st17{fill:none;stroke:#010101;stroke-width:0.6;stroke-linejoin:round;}
	.st18{fill:#DEDEDE;}
	.st19{fill:#F2F2F2;}
	.st20{fill:none;stroke:#010101;stroke-width:0.25;stroke-linejoin:round;stroke-dasharray:2,1;}
	.st21{fill:none;stroke:#262424;stroke-width:0.375;}
</style>
<g id="Layer_1" class="st0">
	<g class="st1">
		<g>
			<path class="st2" d="M110.5,194c1.9,13.1,9.4,26.5,9.3,53.8c-0.1,23.7-5.4,37.5-13.3,68.7"/>
			<path class="st2" d="M240.2,194c-1.9,13.1-9.4,26.5-9.3,53.8c0.1,23.7,5.4,37.7,13.3,68.8"/>
		</g>
		<g>
			<g>
				<path class="st2" d="M234.7,123.7c0,0-10.8,54.6,5.6,70.7"/>
				<line class="st2" x1="203" y1="112.1" x2="235.1" y2="123.9"/>
				<path class="st2" d="M116,123.7c0,0,10.8,54.6-5.6,70.7"/>
				<line class="st2" x1="147.6" y1="112.1" x2="115.6" y2="123.9"/>
			</g>
			<g>
				<g>
					<g>
						<path class="st3" d="M232.2,122.9c-1.8,10.8-10.3,60.3,7.8,74.5"/>
					</g>
				</g>
				<g>
					<g>
						<path class="st3" d="M118.5,122.8c2.5,14.5,9.3,60.7-7.5,74.1"/>
					</g>
				</g>
			</g>
			<g>
				<line class="st4" x1="202.9" y1="115.5" x2="233.7" y2="126.7"/>
				<line class="st4" x1="147.8" y1="115.5" x2="117" y2="126.7"/>
			</g>
		</g>
	</g>
	<g class="st1">
		<path class="st5" d="M106.4,315.9c24.7,7.1,29,22.7,69.7,22.7c41.8,0,44.7-15.1,68.3-22.7"/>
		<path class="st6" d="M106.7,313.2c24.4,7.1,28.6,22.7,69,22.7c41.4,0,44.2-15.1,67.6-22.7"/>
	</g>
</g>
<g id="Layer_4">
	<g>
		<g>
			<g>
				<g>
					<g>
						<g>
							<g>
								<path class="st7" d="M121.7,314.8c-1-0.9-2.2-1.4-3.4-2l-3.7-1.5c-1.2-0.5-2.4-1.1-3.6-1.8c-1.1-0.7-2.2-1.7-2.7-3
									c0.7,1.4,1.9,2.3,3.2,3c1.9,1.2,4.1,2,6.2,2.9C119.2,313,120.6,313.7,121.7,314.8z"/>
							</g>
						</g>
					</g>
					<g>
						<g>
							<g>
								<path class="st7" d="M136.8,304.3c-4.3-1.3-8.6-2.5-13-3.4c-2.2-0.4-4.4-0.8-6.6-1.1c-2.2-0.3-4.5-0.5-6.7-0.2
									c2.4-0.4,5-0.2,7.4,0c3.8,0.5,7.6,1.3,11.4,2.3C131.8,302.7,134.3,303.5,136.8,304.3z"/>
							</g>
						</g>
					</g>
					<g>
						<g>
							<g>
								<path class="st7" d="M121.8,290c-1.6,0.7-3.3,0.8-5,0.8c-0.9,0-1.7-0.1-2.5-0.3c-0.8-0.2-1.7-0.6-2.2-1.4
									c0.6,0.9,1.6,1.1,2.5,1.2c1.4,0.3,2.9,0.3,4.3,0.2C119.8,290.4,120.8,290.4,121.8,290z"/>
							</g>
						</g>
					</g>
					<g>
						<g>
							<g>
								<path class="st7" d="M195.8,281.5c-2.9,1.9-6.3,2.6-9.6,3.1c-3.3,0.5-6.7,0.6-10.1,0.6c-6.7,0-13.5-0.5-20.1-1.3
									c-13.4-1.5-26.6-3.9-39.8-6.4c7.3,1.3,14.7,2.6,22,3.6c11.4,1.8,22.9,3.3,34.4,3.7c3.9,0.1,7.9,0.2,11.8-0.2
									C188.4,284.2,192.4,283.6,195.8,281.5z"/>
							</g>
						</g>
					</g>
					<g>
						<g>
							<g>
								<path class="st7" d="M137.7,268.1c-3.4-0.6-6.7-1.1-10.1-1.2c-1.7-0.1-3.4,0-5.1-0.2c-1.7-0.2-3.3-0.8-4.9-1.5
									c1.8,0.6,3.6,1.2,5.5,1.3c1.4,0.1,2.9,0.1,4.4,0.2c1.5,0.1,2.9,0.2,4.4,0.4C133.8,267.3,135.8,267.7,137.7,268.1z"/>
							</g>
						</g>
					</g>
					<g>
						<g>
							<g>
								<path class="st7" d="M127.8,256.9c-1.4-0.4-2.8-0.6-4.3-0.7c-0.7,0-1.4-0.1-2.1,0c-0.7,0.1-1.4,0.3-1.8,0.9
									c0.3-0.7,1.2-1,2-1.2c1.3-0.1,2.5,0,3.8,0.2C126.2,256.3,127,256.6,127.8,256.9z"/>
							</g>
						</g>
					</g>
					<g>
						<g>
							<g>
								<path class="st7" d="M137,243.8c-2.7-0.7-5.6-0.8-8.3-0.4c-2.8,0.4-5.5,1.3-8,2.5c1.4-0.7,2.8-1.4,4.3-2
									c2.3-0.7,4.8-1.1,7.2-1.1C133.8,243,135.4,243.3,137,243.8z"/>
							</g>
						</g>
					</g>
					<g>
						<g>
							<g>
								<path class="st7" d="M130.1,238c-1.4-0.3-2.9-0.3-4.4-0.5c-0.7-0.1-1.5-0.2-2.2-0.4c-0.7-0.2-1.5-0.5-1.9-1.2
									c0.6,0.7,1.4,0.9,2.2,1c1.2,0.3,2.5,0.4,3.7,0.5C128.4,237.5,129.3,237.7,130.1,238z"/>
							</g>
						</g>
					</g>
					<g>
						<g>
							<g>
								<path class="st7" d="M109.7,304.6c0.7,0.2,1.4,0.4,2,0.7c0.6,0.3,1.3,0.6,2,0.6l0,0.3c-1,0.3-2,0.2-3-0.1
									c-1-0.3-1.9-0.7-2.8-1.1c0.9,0.3,1.8,0.6,2.7,0.8c1,0.3,2,0.4,2.9,0.2l0,0.3c-0.5,0-0.9-0.2-1.3-0.3
									C111.5,305.4,110.7,304.9,109.7,304.6z"/>
							</g>
						</g>
					</g>
					<g>
						<g>
							<g>
								<path class="st7" d="M116.5,295.6c-1.1-0.3-2.2-0.6-3.3-0.6c-1.1,0-2.3,0.4-2.8,1.4c0.2-0.6,0.6-1.1,1.2-1.4
									c1-0.4,2-0.3,3-0.2C115.3,295,115.9,295.3,116.5,295.6z"/>
							</g>
						</g>
					</g>
					<g>
						<g>
							<g>
								<path class="st7" d="M120.4,284.2c1.5,0.3,3.1,0.4,4.6,0.8c0.7,0.2,1.6,0.6,2,1.3c0.4,0.7,0.4,1.6,0.4,2.4l0,0.1l-0.1,0
									c-0.6,0.4-1.3,0.7-2.1,0.7c-0.7,0.1-1.5-0.1-2.1-0.4c-1.4-0.5-2.5-1.5-3.5-2.5l0,0l0,0c-1.4-1.6-3.2-3-5.1-3.8
									c2,0.7,3.8,2.1,5.3,3.6l0,0l0.2,0.2c1,0.9,2.1,1.8,3.4,2.3c1.3,0.5,2.7,0.4,3.8-0.4l-0.1,0.1c0-0.7,0-1.5-0.3-2.1
									c-0.2-0.5-0.7-0.9-1.2-1.2c-0.5-0.2-1.1-0.4-1.7-0.5C122.7,284.6,121.5,284.5,120.4,284.2z"/>
							</g>
						</g>
					</g>
					<g>
						<g>
							<g>
								<path class="st7" d="M119.5,268.9c1.6-0.1,3.2,0.2,4.8,0.4c1.6,0.2,3.2,0.5,4.7,0.7c3.2,0.5,6.3,1.1,9.4,1.8
									c3.1,0.6,6.3,1.3,9.4,2.1c1.6,0.4,3.1,0.8,4.6,1.3c0.8,0.2,1.5,0.5,2.3,0.8c0.4,0.2,0.7,0.3,1.1,0.6
									c0.1,0.1,0.2,0.2,0.1,0.4c-0.1,0.2-0.2,0.2-0.3,0.2c-0.2,0.1-0.4,0.1-0.6,0.2l0.1,0c-0.4,0.2-0.8,0.3-1.2,0.4
									c-0.4,0-0.8,0-1.2,0c-0.8,0-1.6-0.1-2.4-0.3c-1.6-0.2-3.2-0.6-4.7-0.9c-3.1-0.7-6.2-1.5-9.3-2.3c-3.1-0.8-6.2-1.7-9.2-2.6
									c-3.1-0.9-6.1-1.8-9.2-2.6c3.4,0.8,6.8,1.8,10.2,2.7c3.4,0.9,6.8,1.9,10.3,2.7c2.8,0.7,5.5,1.4,8.3,2
									c1.4,0.3,2.8,0.6,4.2,0.8c0.7,0.1,1.4,0.2,2.1,0.2c0.7,0,1.5,0,2-0.3l0,0l0,0c0.2,0,0.3-0.1,0.5-0.1c0.1,0,0.3-0.1,0.2-0.2
									c0-0.1-0.4-0.4-0.7-0.5c-0.6-0.3-1.2-0.5-1.8-0.7c-1.2-0.4-2.5-0.8-3.8-1.1c-2.6-0.7-5.1-1.3-7.7-1.8
									c-3.6-0.8-7.3-1.6-11-2.3c-1.8-0.3-3.7-0.7-5.5-0.9C123.3,269.2,121.4,268.8,119.5,268.9z"/>
							</g>
						</g>
					</g>
					<g>
						<g>
							<g>
								<path class="st7" d="M121.6,276.5c-1-0.2-2-0.5-2.9-1.1c-0.9-0.6-1.6-1.4-1.9-2.4c0.3,0.5,0.6,1,1.1,1.3
									c0.6,0.6,1.3,1.1,2.1,1.4C120.5,276,121,276.3,121.6,276.5z"/>
							</g>
						</g>
					</g>
					<g>
						<g>
							<g>
								<path class="st7" d="M121.1,261.9c0.3,0.3,0.7,0.6,1.1,0.8c0.4,0.2,0.8,0.4,1.1,0.3l0,0.3c-0.8-0.2-1.7-0.3-2.5-0.6
									c-0.4-0.1-0.8-0.4-1.1-0.7c-0.3-0.3-0.5-0.8-0.6-1.2c0.2,0.8,0.8,1.3,1.4,1.5c0.9,0.4,1.8,0.5,2.8,0.7l0.5,0.1l-0.5,0.1
									c-0.2,0-0.3,0.1-0.5,0C122.1,263,121.7,262.4,121.1,261.9z"/>
							</g>
						</g>
					</g>
					<g>
						<g>
							<g>
								<path class="st7" d="M125.9,250.9c-0.8,0.5-1.8,0.5-2.7,0.3c-0.9-0.2-1.8-0.6-2.5-1.1c0.5,0.3,1,0.4,1.5,0.5
									c0.7,0.3,1.5,0.5,2.2,0.5C124.8,251.2,125.3,251.1,125.9,250.9z"/>
							</g>
						</g>
					</g>
					<g>
						<g>
							<g>
								<path class="st7" d="M125.3,242.3c-0.7-0.4-1.4-0.7-2.2-0.8c-0.8-0.1-1.6,0-2.2,0.3c0.3-0.3,0.7-0.5,1.2-0.6
									c0.7-0.1,1.4,0,2.1,0.3C124.5,241.7,124.9,242,125.3,242.3z"/>
							</g>
						</g>
					</g>
					<g>
						<g>
							<g>
								<path class="st7" d="M124.6,232.5c0.6-0.2,1.2-0.4,1.3-1c0.1-0.6,0-1.2-0.1-1.7l0.2,0.1c-1.5,0.5-2.8,1.4-4.1,2.4
									c0.6-0.5,1.1-1.1,1.8-1.6c0.7-0.4,1.4-0.8,2.3-1.1l0.1,0l0,0.1c0.1,0.4,0.2,0.8,0.2,1.2c0,0.4-0.1,0.9-0.5,1.2
									C125.4,232.3,125,232.4,124.6,232.5z"/>
							</g>
						</g>
					</g>
					<g>
						<g>
							<g>
								<path class="st7" d="M114.7,293.5c-0.8,0.1-1.7,0.1-2.5-0.1c-0.4-0.1-0.8-0.3-1.1-0.7c-0.3-0.4-0.2-0.9-0.1-1.3
									c0,0.5,0.1,1,0.4,1.2c0.4,0.5,1.2,0.6,1.8,0.6C113.7,293.3,114.2,293.4,114.7,293.5z"/>
							</g>
						</g>
					</g>
					<g>
						<g>
							<g>
								<path class="st7" d="M116.6,287.1c-0.8-0.4-1.6-0.8-2.4-1.1c-0.4-0.2-0.8-0.3-1.3-0.4c-0.2,0-0.4-0.1-0.6-0.1
									c-0.2,0-0.4,0.1-0.4,0.2c-0.1-0.2,0.2-0.3,0.4-0.4c0.2,0,0.5,0,0.8,0c0.8,0.2,1.5,0.5,2.2,0.8L116.6,287.1z"/>
							</g>
						</g>
					</g>
					<g>
						<g>
							<g>
								<path class="st7" d="M118.4,280.4c-0.6,0.3-1.2,0.6-1.9,0.5c-0.7,0-1.3-0.3-1.8-0.8c0.3,0.2,0.7,0.4,1,0.4
									c0.5,0.2,1,0.2,1.5,0.1C117.7,280.5,118.1,280.5,118.4,280.4z"/>
							</g>
						</g>
					</g>
					<g>
						<g>
							<g>
								<path class="st7" d="M119.4,272c-0.8-0.4-1.8-0.7-2.5-0.3c0.1-0.2,0.4-0.4,0.6-0.5c0.4,0,0.8,0,1.2,0.2
									C119,271.6,119.2,271.8,119.4,272z"/>
							</g>
						</g>
					</g>
					<g>
						<g>
							<g>
								<path class="st7" d="M123.4,260.7c-1.3-0.1-2.5-0.9-3.5-1.7c0.3,0.2,0.7,0.3,1,0.4c0.4,0.3,0.9,0.6,1.4,0.7
									C122.7,260.4,123,260.6,123.4,260.7z"/>
							</g>
						</g>
					</g>
					<g>
						<g>
							<g>
								<path class="st7" d="M121.9,253.2c-0.5,0-1,0.1-1.4,0.3c0-0.1,0.2-0.3,0.3-0.4c0.2-0.1,0.4-0.1,0.7-0.1
									C121.6,253,121.7,253.1,121.9,253.2z"/>
							</g>
						</g>
					</g>
					<g>
						<g>
							<g>
								<polygon class="st7" points="124.5,238.9 121.4,238.8 122.2,238.6 123.6,238.6 								"/>
							</g>
						</g>
					</g>
					<g>
						<g>
							<g>
								<path class="st7" d="M125.3,248.9c-0.8,0-1.6,0.1-2.5,0.1c-0.8,0-1.7-0.2-2.4-0.8c0.4,0.2,0.9,0.4,1.3,0.4
									c0.7,0.2,1.4,0.2,2.1,0.1L125.3,248.9z"/>
							</g>
						</g>
					</g>
					<g>
						<g>
							<g>
								<path class="st7" d="M124,222.6c-0.9,0.1-1.8,0-2.7-0.1c-0.9-0.2-1.8-0.6-2.3-1.4c0.3,0.4,0.8,0.7,1.3,0.8
									c0.7,0.3,1.4,0.5,2.2,0.5C123,222.5,123.5,222.6,124,222.6z"/>
							</g>
						</g>
					</g>
					<g>
						<g>
							<g>
								<path class="st7" d="M132.7,196.9c0.8,2.4,0.8,5.2-0.5,7.4c-0.3,0.6-0.7,1.1-1.2,1.5c-0.5,0.4-1.1,0.7-1.7,0.9
									c-1.2,0.4-2.5,0.4-3.6,1l0,0l0,0c-1.9,0.3-3.8,0.5-5.7,1.1c-0.9,0.3-1.8,0.7-2.5,1.3c-0.7,0.6-1.2,1.5-1.4,2.4l-0.2-0.1
									c0.5-0.3,1-0.4,1.6-0.4c0.5,0,1.1,0.1,1.6,0.1l0.1,0l0,0.1c0,0.5-0.2,0.9-0.5,1.3l-0.1-0.2c1,0,1.8,0.5,2.5,1.1l0.2,0.1
									l-0.2,0.1c-0.9,0.4-1.6,1.2-2.7,1.4l0.1-0.1c0,0.1-0.1,0.2,0,0.3l-0.1-0.1c3,0,6,0.1,8.9-0.5c-2.9,0.6-5.9,0.6-8.9,0.7l0,0
									l0,0c-0.1-0.1-0.1-0.4,0-0.5l0,0l0,0c1-0.2,1.7-1,2.6-1.4l0,0.2l-0.3-0.2c-0.6-0.4-1.3-0.8-2-0.8l-0.3,0l0.1-0.2
									c0.2-0.4,0.4-0.8,0.4-1.1l0.1,0.1c-1-0.1-2.1-0.4-3,0.2l-0.3,0.2l0.1-0.4c0.2-1,0.8-1.9,1.5-2.5c0.8-0.7,1.7-1.1,2.6-1.4
									c1.9-0.6,3.8-0.8,5.7-1.1l0,0c0.5-0.2,1-0.4,1.5-0.5c1.1-0.2,2.2-0.3,3.2-0.9c1-0.5,1.7-1.5,2.2-2.5
									C133.4,201.5,133.4,199.1,132.7,196.9z"/>
							</g>
						</g>
					</g>
					<g>
						<g>
							<g>
								<path class="st7" d="M119.5,208.7c-0.8,0.5-1.6,0.6-2.5,0.8c-0.4,0.1-0.9,0.1-1.3,0.1c-0.2,0-0.5-0.1-0.7-0.2
									c-0.2-0.1-0.3-0.5-0.3-0.7c-0.1,0.3,0.2,0.6,0.4,0.6c0.2,0.1,0.5,0,0.7,0c0.7,0,1.4-0.1,2.1-0.3
									C118.5,208.9,119,208.9,119.5,208.7z"/>
							</g>
						</g>
					</g>
					<g>
						<g>
							<g>
								<path class="st7" d="M115.5,206c0.9,0.1,1.8-0.5,2.2-1.4c0.4-0.9,0.3-1.9,0.1-2.8l0.2,0.1c-1.2,1.3-2.4,2.7-4,3.5
									c0.9-0.5,1.7-1.3,2.3-2.1c0.5-0.5,1-1,1.5-1.6l0.2-0.2l0.1,0.2c0.2,0.9,0.3,1.8,0,2.7C117.7,205.4,116.5,206.2,115.5,206z"
									/>
							</g>
						</g>
					</g>
					<g>
						<g>
							<g>
								<path class="st7" d="M120.4,226.7c0.6,0.1,1.3,0.2,1.9,0.3c0.6,0.1,1.3,0.3,1.8,0.8l0.1,0.1l-0.2,0.1
									c-0.7,0.5-1.6,0.8-2.4,0.9c-0.4,0-0.9,0-1.3-0.2c-0.4-0.2-0.7-0.6-0.8-1.1c0.2,0.4,0.5,0.8,0.9,0.9c0.4,0.2,0.8,0.2,1.2,0.1
									c0.8,0,1.7-0.4,2.4-0.8l0,0.2c-0.3-0.2-0.6-0.4-1-0.5C122.1,227.1,121.3,226.9,120.4,226.7z"/>
							</g>
						</g>
					</g>
					<g>
						<g>
							<g>
								<path class="st7" d="M123.7,196.1c-0.3,1.2-0.5,2.4-1.4,3.3c-0.8,1-2.1,1.4-3.3,1.3c-1.2,0-2.4-0.3-3.5-0.7
									c-1.1-0.3-2.2-0.8-3.4-0.9c1.3,0,2.5,0.5,3.8,0.8c1,0.3,1.9,0.5,2.9,0.6c1,0,2-0.2,2.7-0.8
									C122.8,198.8,123.3,197.4,123.7,196.1z"/>
							</g>
						</g>
					</g>
					<g>
						<g>
							<g>
								<path class="st7" d="M111.3,195.5c0.7,0.2,1.5,0.4,2.1,0c0.6-0.3,0.9-1,1-1.7l0.2,0.2c-0.5,0.1-1,0.3-1.5,0.4l-0.7,0.2
									c-0.1,0-0.2,0.1-0.3,0.1c0,0-0.1,0-0.1,0.1c0,0,0-0.1,0-0.1c0,0,0,0,0,0c0,0,0,0,0,0c0,0,0,0,0,0c0.1,0,0.1-0.1,0.2-0.1
									c0.2-0.1,0.3-0.1,0.5-0.2l1-0.4c0.3-0.1,0.6-0.1,0.9-0.2l0.2-0.1l0,0.2c-0.1,0.8-0.4,1.6-1.2,2
									C112.7,196.1,112,195.9,111.3,195.5z"/>
							</g>
						</g>
					</g>
					<g>
						<g>
							<g>
								<path class="st7" d="M187.4,229c1.6-0.5,3.2-1.1,4.8-1.7c0.4-0.2,0.8-0.3,1.2-0.5c0.2-0.1,0.4-0.2,0.5-0.3
									c0.2-0.1,0.4-0.3,0.3-0.3c0-0.1-0.2-0.2-0.4-0.2c-0.2,0-0.4-0.1-0.6-0.1c-0.4,0-0.8-0.1-1.3-0.1c-3.4,0-6.8,0.2-10.3,0.4
									c-6.8,0.4-13.7,0.7-20.6,0.8c-13.7,0.3-27.5-0.1-41-2.3c7.5,1.1,15.1,1.7,22.7,1.9c11.8,0.5,23.6,0.1,35.3-0.5
									c4-0.2,8-0.4,12.1-0.4c1,0,2,0,3,0.1c0.2,0,0.5,0.1,0.7,0.1c0.2,0.1,0.5,0.2,0.4,0.4c-0.3,0.4-0.8,0.6-1.2,0.8
									C191.2,227.8,189.3,228.4,187.4,229z"/>
							</g>
						</g>
					</g>
					<g>
						<g>
							<g>
								<path class="st7" d="M115,202.2c-0.5-0.1-1.1-0.3-1.6-0.3c-0.5,0-1,0.3-1.4,0.7c0.1-0.3,0.3-0.6,0.6-0.8
									c0.5-0.2,1-0.2,1.5-0.1C114.4,201.8,114.7,202,115,202.2z"/>
							</g>
						</g>
					</g>
					<g>
						<g>
							<g>
								<path class="st7" d="M114.4,196.6c-1.1,0.3-2.1,0.6-3,1.2c0.2-0.2,0.4-0.5,0.7-0.7c0.4-0.2,0.9-0.4,1.4-0.5
									C113.7,196.6,114.1,196.6,114.4,196.6z"/>
							</g>
						</g>
					</g>
					<g>
						<g>
							<g>
								<path class="st7" d="M120.1,219.4c0.7-0.2,1.2-0.8,1.6-1.5l0.2,0.2c-0.6,0.2-1.2,0.4-1.7,0.7c-0.3,0.1-0.6,0.3-0.8,0.4
									c-0.1,0.1-0.3,0.2-0.4,0.3c-0.1,0.1-0.2,0.3-0.2,0.2c-0.1,0.1,0-0.1,0.1-0.2c0.1-0.1,0.2-0.2,0.3-0.3
									c0.2-0.2,0.4-0.4,0.7-0.5c0.6-0.3,1.3-0.6,1.9-0.8l0.4-0.1l-0.3,0.4c-0.1,0.1-0.2,0.3-0.3,0.4
									C121.2,219,120.7,219.3,120.1,219.4z"/>
							</g>
						</g>
					</g>
				</g>
			</g>
			<g>
				<g>
					<g>
						<g>
							<g>
								<g>
									<path class="st7" d="M226.6,191.9c2.3,1,4.9,1.6,7.3,2.5c1.2,0.5,2.4,1,3.5,1.7c1.1,0.7,2.1,1.7,2.5,2.9
										c-0.6-1.4-1.8-2.3-3-2.9c-1.9-1.1-4-1.8-6.1-2.4C229.3,193.1,227.9,192.6,226.6,191.9z"/>
								</g>
							</g>
						</g>
						<g>
							<g>
								<g>
									<path class="st7" d="M211.6,201.3c4.1,1.4,8.4,2.6,12.6,3.6c2.1,0.5,4.3,0.9,6.4,1.2c2.2,0.3,4.4,0.5,6.5,0.4
										c-2.4,0.3-4.9,0.1-7.3-0.2c-3.7-0.6-7.4-1.5-11.1-2.5C216.4,203,214,202.2,211.6,201.3z"/>
								</g>
							</g>
						</g>
						<g>
							<g>
								<g>
									<path class="st7" d="M224.1,214.8c1.6-0.1,3.3-0.3,4.9-0.4c0.8,0,1.7,0,2.5,0.1c0.8,0.1,1.7,0.3,2.3,1.1
										c-0.7-0.8-1.7-0.8-2.6-0.8c-1.4-0.1-2.8,0-4.2,0.1C226,214.8,225,214.8,224.1,214.8z"/>
								</g>
							</g>
						</g>
						<g>
							<g>
								<g>
									<path class="st7" d="M216.1,221.7c5,2.6,10.1,5.4,15.7,6.4c-1.6-0.2-3.1-0.5-4.7-0.9c-2.3-0.8-4.6-1.8-6.8-2.9L216.1,221.7
										z"/>
								</g>
							</g>
						</g>
						<g>
							<g>
								<g>
									<path class="st7" d="M209.5,239.1c1.6-0.7,3.4-1.1,5.1-1.2c1.8-0.1,3.5,0.1,5.2,0.5c3.4,0.7,6.8,1.8,10.3,2.1
										c-1.9-0.1-3.8-0.4-5.8-0.8c-2.9-0.7-5.8-1.5-8.8-1.5C213.5,238.1,211.4,238.3,209.5,239.1z"/>
								</g>
							</g>
						</g>
						<g>
							<g>
								<g>
									<path class="st7" d="M223,251c1.5,0,3-0.1,4.4-0.4c0.7-0.2,1.4-0.3,2.1-0.6c0.7-0.3,1.3-0.7,1.7-1.3
										c-0.3,0.7-1,1.3-1.8,1.6c-1.2,0.5-2.5,0.7-3.8,0.8C224.7,251.1,223.8,251.1,223,251z"/>
								</g>
							</g>
						</g>
						<g>
							<g>
								<g>
									<path class="st7" d="M216.6,266.1c0.8-1.2,1.9-2.2,3.2-2.9c1.3-0.7,2.7-1,4.1-1.1c1.4-0.2,2.8-0.2,4.2-0.4
										c1.4-0.2,2.7-0.8,3.6-1.9c-0.9,1.3-2.4,1.9-4,2.2c-2.4,0.3-4.9,0.2-7.1,1.2C219,263.7,217.6,264.8,216.6,266.1z"/>
								</g>
							</g>
						</g>
						<g>
							<g>
								<g>
									<path class="st7" d="M142.4,268.4c7.5,1.6,15,2.5,22.7,2.8c7.6,0.3,15.2,0,22.8-0.6c7.6-0.5,15.2-1.2,22.8-1.5
										c7.6-0.3,15.3-0.2,22.9,0.7c-8.4-0.8-16.9-0.8-25.3-0.3c-13.1,0.6-26.2,2.3-39.3,2.1C160.1,271.3,151.2,270.3,142.4,268.4z
										"/>
								</g>
							</g>
						</g>
						<g>
							<g>
								<g>
									<path class="st7" d="M237.6,201.9c-0.6-0.3-1.2-0.7-1.9-0.9c-0.6-0.2-1.4-0.2-1.8,0.3l-0.1-0.2c1,0,1.9-0.1,2.9-0.1
										c1,0,2,0.3,2.7,1.1c-0.7-0.7-1.7-0.9-2.6-0.8c-1-0.1-2,0-3,0.1l-0.3,0l0.2-0.2c0.3-0.3,0.8-0.6,1.3-0.5
										C236,200.7,236.7,201.3,237.6,201.9z"/>
								</g>
							</g>
						</g>
						<g>
							<g>
								<g>
									<path class="st7" d="M231.3,206.6c0.6,0.9,1.4,1.8,2.3,2.4c0.5,0.3,1,0.5,1.5,0.6c0.5,0.1,1.1-0.1,1.5-0.4
										c-0.4,0.4-1,0.7-1.7,0.6c-1-0.2-1.8-0.9-2.5-1.6C231.9,207.8,231.6,207.2,231.3,206.6z"/>
								</g>
							</g>
						</g>
						<g>
							<g>
								<g>
									<path class="st7" d="M234.9,192c0.7,0.8,1.7,1.3,2.8,1.5c1.1,0.2,2.2,0.3,3.3,0.6c-0.6-0.1-1.2-0.1-1.9-0.1
										c-0.9-0.1-1.9-0.3-2.8-0.7C235.7,193,235.2,192.6,234.9,192z"/>
								</g>
							</g>
						</g>
						<g>
							<g>
								<g>
									<path class="st7" d="M225.5,221.1c-1.3-0.1-2.7,0-4-0.4c-0.7-0.2-1.3-0.6-1.7-1.1c-0.5-0.5-0.8-1.2-1-1.8l0-0.1l0.1-0.1
										c0.9-0.7,2.3-1,3.4-0.7c1.2,0.3,2.2,0.9,3.2,1.5c1,0.6,2,1.2,3,1.7c1,0.5,2.1,1.1,3.2,1.4c-1.9-0.5-3.8-1.5-5.6-2.4
										c-1.1-0.7-2.2-1.4-3.4-1.8c-0.6-0.2-1.2-0.3-1.9-0.2c-0.6,0.1-1.2,0.4-1.7,0.7l0-0.2c0.2,0.5,0.4,1,0.7,1.4
										c0.5,0.9,1.5,1.5,2.6,1.7C223.3,221,224.4,220.9,225.5,221.1z"/>
								</g>
							</g>
						</g>
						<g>
							<g>
								<g>
									<path class="st7" d="M228,236.5c-0.7,0.2-1.5,0-2.1,0.4l-0.1-0.2c1.5,0.2,3,0.2,4.4-0.1c-0.6,0.2-1.2,0.4-1.8,0.5
										c-0.9,0-1.8,0-2.7-0.1l-0.3-0.1l0.3-0.2c0.1-0.1,0.1-0.1,0.2-0.1C226.6,236.3,227.3,236.5,228,236.5z"/>
								</g>
							</g>
						</g>
						<g>
							<g>
								<g>
									<path class="st7" d="M148.8,230.9c6.6,1,13.3,2,20,2.4c6.7,0.4,13.4,0.5,20.1,0.2c6.7-0.3,13.4-1,20.1-1.7
										c3.3-0.3,6.7-0.6,10.1-0.7c0.8,0,1.7,0,2.5,0l1.3,0l1.3,0.1c0.8,0.1,1.7,0.1,2.5,0.2l2.5,0.4c-3.7-0.7-7.4-0.7-11.2-0.5
										c-3.7,0.1-7.4,0.6-11.1,1c-5.8,0.6-11.5,1.2-17.3,1.4c-5.8,0.3-11.6,0.3-17.3,0C164.4,233.2,156.6,232.2,148.8,230.9z"/>
								</g>
							</g>
						</g>
						<g>
							<g>
								<g>
									<path class="st7" d="M228.6,244.8c-1-0.2-2.2-0.7-2.6-1.8l-0.1-0.2l0.2,0c1.8,0,3.7,0.6,4.8,2.1c-0.6-0.6-1.3-1-2-1.2
										c-0.9-0.4-1.8-0.6-2.8-0.6l0.1-0.2c0.1,0.2,0.2,0.4,0.4,0.5C227,244.1,227.8,244.5,228.6,244.8z"/>
								</g>
							</g>
						</g>
						<g>
							<g>
								<g>
									<path class="st7" d="M226.8,255.7c0.8-0.3,1.7-0.6,2.6-0.6c0.9-0.1,1.9,0,2.6,0.6c-0.5-0.3-1-0.4-1.5-0.3
										c-0.7-0.1-1.5,0-2.2,0.1C227.9,255.5,227.4,255.5,226.8,255.7z"/>
								</g>
							</g>
						</g>
						<g>
							<g>
								<g>
									<path class="st7" d="M228.9,264.2c0.7,0.3,1.5,0.4,2.3,0.4c0.8,0,1.5-0.2,2.1-0.7c-0.3,0.3-0.6,0.6-1,0.8
										c-0.7,0.2-1.4,0.2-2.1,0.1C229.8,264.6,229.3,264.4,228.9,264.2z"/>
								</g>
							</g>
						</g>
						<g>
							<g>
								<g>
									<path class="st7" d="M210.5,275c-1,0-2,0-3,0.2c-0.5,0.1-1,0.2-1.4,0.4c-0.4,0.2-0.8,0.5-0.8,1l0,0.1l-0.1,0c0,0,0,0,0,0
										c0-0.1,0-0.1,0-0.1c0,0,0.1,0,0.2,0.1c0.1,0,0.3,0.1,0.5,0.1c0.3,0,0.6,0.1,0.9,0.1c0.6,0,1.3,0.1,1.9,0.1
										c1.3,0,2.5,0,3.8,0c2.6-0.1,5.1-0.2,7.6-0.4c2.5-0.2,5.1-0.5,7.6-1c2.5-0.5,5-1.1,7.3-2.1c-3.1,1.4-6.4,2.2-9.8,2.8
										c-5.2,0.7-10.5,1.1-15.8,1c-0.8,0-1.6-0.1-2.3-0.1c-0.4,0-0.8-0.1-1.2-0.1c-0.2,0-0.4-0.1-0.6-0.1c-0.1,0-0.2,0-0.3-0.1
										c0,0-0.1,0-0.1-0.1c0-0.1,0.1-0.1,0.1-0.1l0,0c-0.1-0.6,0.4-0.9,0.9-1.1c0.5-0.2,1-0.3,1.5-0.3
										C208.5,274.9,209.5,274.9,210.5,275z"/>
								</g>
							</g>
						</g>
						<g>
							<g>
								<g>
									<path class="st7" d="M230.7,211c0.8-0.1,1.8-0.1,2.5,0.4c0.8,0.5,1.2,1.4,1.1,2.3c0-0.5-0.2-1-0.5-1.3
										c-0.3-0.6-1-1-1.6-1.1C231.7,211.1,231.2,211,230.7,211z"/>
								</g>
							</g>
						</g>
						<g>
							<g>
								<g>
									<path class="st7" d="M228.5,217.1c0.8,0.4,1.6,0.7,2.5,1c0.4,0.1,0.8,0.3,1.3,0.3c0.2,0,0.4,0.1,0.6,0
										c0.2,0,0.4-0.1,0.4-0.2c0.1,0.2-0.2,0.3-0.4,0.3c-0.2,0-0.5,0.1-0.8,0.1c-0.8-0.2-1.5-0.4-2.2-0.7
										C229.3,217.7,228.9,217.4,228.5,217.1z"/>
								</g>
							</g>
						</g>
						<g>
							<g>
								<g>
									<path class="st7" d="M229.4,224.5c0.6-0.1,1.3-0.2,1.9-0.1c0.7,0.1,1.2,0.6,1.5,1.2c-0.2-0.3-0.5-0.5-0.8-0.6
										c-0.4-0.3-0.9-0.4-1.4-0.4C230.2,224.6,229.8,224.6,229.4,224.5z"/>
								</g>
							</g>
						</g>
						<g>
							<g>
								<g>
									<path class="st7" d="M227.8,234.3c0.4,0,0.9,0,1.3-0.1c0.4-0.1,0.9-0.3,1.1-0.6c-0.1,0.2-0.2,0.5-0.4,0.7
										c-0.4,0.2-0.8,0.2-1.2,0.3C228.3,234.5,228,234.4,227.8,234.3z"/>
								</g>
							</g>
						</g>
						<g>
							<g>
								<g>
									<path class="st7" d="M228.3,246.6c1.2-0.4,2.6-0.6,3.8,0c-0.4-0.1-0.7-0.1-1.1,0c-0.5-0.1-1.1-0.1-1.6,0.1
										C229,246.6,228.7,246.6,228.3,246.6z"/>
								</g>
							</g>
						</g>
						<g>
							<g>
								<g>
									<path class="st7" d="M230.3,252.8c0.5-0.1,1-0.3,1.3-0.5c0,0.1-0.1,0.3-0.2,0.4c-0.2,0.1-0.4,0.2-0.6,0.3
										C230.6,252.9,230.5,252.8,230.3,252.8z"/>
								</g>
							</g>
						</g>
						<g>
							<g>
								<g>
									<polygon class="st7" points="231.7,266.8 234.8,266.8 233.9,267.1 232.6,267.1 									"/>
								</g>
							</g>
						</g>
						<g>
							<g>
								<g>
									<path class="st7" d="M227.2,257c1.6-0.4,3.4-0.5,4.9,0.5c-0.4-0.2-0.9-0.3-1.4-0.3c-0.7-0.2-1.4-0.2-2.1-0.1
										C228.2,257,227.7,257,227.2,257z"/>
								</g>
							</g>
						</g>
						<g>
							<g>
								<g>
									<path class="st7" d="M232.5,283.6c0.9-0.2,1.8-0.3,2.7-0.3c0.9,0.1,1.9,0.3,2.5,1.1c-0.4-0.4-0.9-0.5-1.4-0.6
										c-0.7-0.2-1.5-0.3-2.2-0.2C233.6,283.6,233,283.6,232.5,283.6z"/>
								</g>
							</g>
						</g>
						<g>
							<g>
								<g>
									<path class="st7" d="M164.4,300.6c-6.5-0.4-13-1.4-19.4-3c-3.2-0.8-6.3-1.8-9.4-2.8c-1.6-0.5-3.1-1-4.7-1.2
										c-0.8-0.1-1.6-0.1-2.4,0.1c-0.8,0.2-1.5,0.6-2.1,1.1c-0.3,0.2,0,0.6,0.3,0.8c0.3,0.3,0.6,0.5,1,0.7c0.7,0.4,1.5,0.7,2.2,1
										c1.5,0.6,3.1,1,4.7,1.5c3.2,0.8,6.4,1.5,9.6,2c6.4,1.1,13,1.7,19.5,2.1c26.1,1.4,52.5-1.9,77.5-9.4l0,0.3
										c-1.1-0.1-2-0.7-3-0.9l-0.2,0l0.1-0.2c0.2-0.3,0.5-0.5,0.7-0.7l0.1,0.2c-0.9,0.1-1.7-0.2-2.5-0.5l-0.3-0.1l0.2-0.1
										c0.8-0.5,1.4-1.4,2.4-1.7l-0.1,0.1c0.1-0.1,0.1-0.3,0-0.4l0.1,0.1c-2.6,0-5.3-0.6-7.8,0.4c2.5-1,5.2-0.4,7.8-0.4l-0.1,0
										c0.1,0.1,0.1,0.3,0,0.4l0.1-0.1c-1,0.3-1.6,1.2-2.4,1.8l-0.1,0.1l0.1,0.1c0.8,0.3,1.6,0.6,2.5,0.5l-0.1-0.1
										c-0.2,0.3-0.5,0.5-0.7,0.7l-0.1,0.1l0.1,0c1,0.2,1.9,0.8,2.9,0.8l0-0.1c-9.7,3-19.6,5.3-29.7,7c-12.4,2-24.9,3-37.5,2.9
										c-6.3,0-12.5-0.3-18.8-0.9c-6.2-0.6-12.5-1.5-18.6-2.9c-2.1-0.5-4.1-1.1-6.2-1.8c-1-0.4-2-0.8-3-1.3
										c-0.5-0.3-0.9-0.5-1.3-1c-0.2-0.2-0.3-0.6-0.1-0.8c0.2-0.2,0.4-0.3,0.7-0.5c0.9-0.6,2-0.8,3.1-0.8c1.1,0,2.1,0.3,3.2,0.5
										c2.1,0.6,4.1,1.3,6.1,1.9c4.1,1.3,8.2,2.4,12.4,3.2C155.8,299.8,160.1,300.3,164.4,300.6z"/>
								</g>
							</g>
						</g>
						<g>
							<g>
								<g>
									<path class="st7" d="M237.1,295.8c0.9-0.1,1.8,0,2.6,0.1c0.4,0.1,0.9,0.2,1.3,0.4c0.2,0.1,0.4,0.2,0.6,0.4
										c0.2,0.2,0.2,0.5,0,0.8c0.1-0.3,0-0.6-0.2-0.7c-0.2-0.1-0.4-0.2-0.7-0.2c-0.7-0.3-1.4-0.4-2.1-0.4
										C238.1,295.9,237.6,295.8,237.1,295.8z"/>
								</g>
							</g>
						</g>
						<g>
							<g>
								<g>
									<path class="st7" d="M240.5,299.5c-0.8-0.1-1.5,0.3-2,0.8c-0.5,0.6-0.9,1.3-1.1,2.1l-0.2-0.2c1.6-0.6,3.2-1.4,4.8-2
										c-0.9,0.4-1.7,0.9-2.5,1.3c-0.7,0.3-1.5,0.7-2.3,0.9l-0.2,0.1l0.1-0.3c0.2-0.6,0.4-1.2,0.8-1.8
										C238.6,299.8,239.6,299.3,240.5,299.5z"/>
								</g>
							</g>
						</g>
						<g>
							<g>
								<g>
									<path class="st7" d="M236.3,278.7c-0.6-0.2-1.2-0.2-1.9-0.2c-0.3,0-0.7-0.1-1-0.3c-0.3-0.2-0.5-0.5-0.7-0.8l-0.1-0.1
										l0.1-0.1c0.8-0.5,1.7-0.7,2.5-0.7c0.4,0,0.9,0.1,1.3,0.3c0.4,0.2,0.7,0.6,0.9,1.1c-0.2-0.4-0.5-0.8-0.9-0.9
										c-0.4-0.2-0.8-0.2-1.2-0.2c-0.8,0-1.7,0.2-2.4,0.6l0-0.2c0.2,0.4,0.5,0.7,0.9,0.8c0.4,0.2,0.8,0.2,1.3,0.2
										C235.5,278.4,235.9,278.5,236.3,278.7z"/>
								</g>
							</g>
						</g>
						<g>
							<g>
								<g>
									<path class="st7" d="M224.4,306.4c1.4-0.7,3-0.8,4.5-0.8c1.5,0,3.1,0.1,4.6,0.2c3,0.3,6.1,0.8,9,1.5
										c-1.7-0.3-3.3-0.5-5-0.7c-2.6-0.4-5.2-0.7-7.8-0.8C227.9,305.8,226.1,305.7,224.4,306.4z"/>
								</g>
							</g>
						</g>
						<g>
							<g>
								<g>
									<path class="st7" d="M227,278.3c1.7-0.5,3.6-0.3,5.2,0.3c1.7,0.6,3.2,1.4,4.7,2.4c-0.9-0.5-1.7-0.9-2.6-1.2
										c-1.3-0.7-2.7-1.2-4.2-1.4C229.1,278.1,228.1,278.1,227,278.3z"/>
								</g>
							</g>
						</g>
						<g>
							<g>
								<g>
									<path class="st7" d="M234.9,303.9c0.5,0.3,1.2,0.3,1.9,0.4c0.7,0,1.4,0,2,0c0.7,0,1.4-0.1,2-0.2c0.7-0.1,1.4-0.2,1.9-0.5
										c-0.6,0.4-1.4,0.6-2.1,0.8c-1.2,0.1-2.3,0.2-3.5,0.2c-0.4,0-0.8-0.1-1.2-0.2C235.6,304.2,235.2,304.1,234.9,303.9z"/>
								</g>
							</g>
						</g>
						<g>
							<g>
								<g>
									<path class="st7" d="M240,309.6c1.1-0.2,2.2-0.4,3.1-0.9c-0.2,0.2-0.5,0.4-0.7,0.6c-0.5,0.2-0.9,0.3-1.4,0.4
										C240.7,309.7,240.4,309.7,240,309.6z"/>
								</g>
							</g>
						</g>
						<g>
							<g>
								<g>
									<path class="st7" d="M237.7,286.2c-0.6,0.3-1.2,0.7-1.8,1l-0.1-0.3c0.6-0.1,1.2-0.3,1.8-0.5c0.3-0.1,0.6-0.2,0.9-0.3
										c0.1-0.1,0.3-0.1,0.4-0.2c0.1-0.1,0.2-0.2,0.2-0.1c0-0.1,0,0.1-0.1,0.2c-0.1,0.1-0.2,0.2-0.3,0.3c-0.2,0.2-0.5,0.3-0.7,0.4
										c-0.7,0.2-1.4,0.4-2.1,0.6l-0.1-0.3c0.1-0.1,0.2-0.1,0.3-0.2C236.6,286.5,237.2,286.3,237.7,286.2z"/>
								</g>
							</g>
						</g>
					</g>
				</g>
				<g>
					<g>
						<g>
							<path class="st7" d="M122.3,302.7c8.7,3.7,17.6,7.3,26.6,10.2c9,2.9,18.4,5,27.9,5.6c9.5,0.6,19-0.7,28.3-2.8
								c9.2-2.2,18.3-5.2,27.2-8.6c-9.8,3.8-19.8,7.3-30.1,9.5c-8,1.7-16.2,2.6-24.4,2.2c-8.2-0.3-16.3-1.9-24.1-4.2
								c-2.7-0.8-5.3-1.7-8-2.6c-2.6-1-5.2-1.9-7.8-2.9l-7.7-3.1L122.3,302.7z"/>
						</g>
					</g>
				</g>
				<g>
					<g>
						<g>
							<path class="st7" d="M239.3,281c-10,1.7-19.9,3.8-29.9,5.9c-9.9,2.1-19.9,4.2-30,4.9c-10.1,0.7-20.4,0-30.3-1.9
								c-10-1.9-19.7-4.8-29.3-8.2c10.6,3.6,21.5,6.7,32.6,8.5c8.6,1.4,17.3,2,26,1.4c8.7-0.5,17.3-2.1,25.8-3.9
								C215.9,285.3,227.6,282.8,239.3,281z"/>
						</g>
					</g>
				</g>
				<g>
					<g>
						<g>
							<path class="st7" d="M202.7,319c5.3-2.3,10.7-4.1,16.3-5.5c2.8-0.7,5.6-1.3,8.4-1.7c0.7-0.1,1.4-0.2,2.1-0.3
								c0.4,0,0.7-0.1,1.1,0c0.1,0,0.2,0,0.3,0.1c0,0,0.1,0,0.1,0.2c0,0.1,0,0.1-0.1,0.2c-0.1,0.1-0.1,0.1-0.1,0.1l-0.5,0.3
								l-3.8,2.1l-1.9,1l-0.9,0.5l-1,0.5l-3.9,1.8l-2,0.9l-2,0.8l-4,1.6c-1.3,0.5-2.7,0.9-4.1,1.3c-1.4,0.4-2.7,0.9-4.2,1.2
								l-4.2,0.9c-0.7,0.2-1.4,0.3-2.1,0.4l-2.1,0.3c-2.8,0.5-5.7,0.5-8.6,0.7c-1.4,0-2.9-0.1-4.3-0.1l-2.2-0.1l-2.1-0.2
								c-1.4-0.1-2.9-0.3-4.3-0.4l-4.3-0.7c-1.4-0.2-2.8-0.5-4.2-0.8c-1.4-0.3-2.8-0.6-4.2-0.9c-11.2-2.8-22-6.6-32.8-10.5
								c3,1,6,2.1,9,3.1l4.5,1.5l4.5,1.4c1.5,0.5,3,1,4.6,1.4l4.6,1.3c3.1,0.8,6.1,1.6,9.3,2.2c9.6,2.1,19.6,3.1,29.4,1.9
								c9.8-1.1,19.3-4.3,28.2-8.5l2.3-1.1c0.7-0.4,1.5-0.8,2.2-1.2l4.4-2.4l0.6-0.3c0.1,0,0.2-0.1,0.2-0.1c-0.1,0-0.2,0-0.3-0.1
								c-0.4,0-0.8,0-1.3,0c-0.8,0.1-1.7,0.2-2.5,0.3c-1.7,0.3-3.3,0.6-5,0.9C215.3,314.4,208.9,316.4,202.7,319z"/>
						</g>
					</g>
				</g>
			</g>
			<g>
				<g>
					<g>
						<g>
							<path class="st7" d="M193.5,258.7c4.7,0.1,9.4-0.3,14-1.1c2.3-0.4,4.6-0.9,6.9-1.3c0.6-0.1,1.2-0.2,1.8-0.1
								c0.3,0.1,0.6,0.3,0.8,0.5c0.2,0.2,0.4,0.5,0.4,0.9c0,0.4-0.2,0.6-0.5,0.9c-0.2,0.2-0.5,0.4-0.8,0.5c-0.5,0.3-1.1,0.5-1.7,0.6
								c-2.3,0.6-4.6,1-6.9,1.2c-2.3,0.3-4.7,0.4-7,0.6c-4.7,0.2-9.4,0.3-14.1,0.3c-9.4-0.1-18.8-0.7-28.1-1.8
								c-4.7-0.6-9.3-1.3-13.9-2.2c-4.6-0.9-9.2-2-13.6-3.6c4.9,1.7,10,2.9,15.1,3.8c5.1,0.9,10.3,1.6,15.4,2.1
								c8,0.9,16.1,1.3,24.1,1.5c8,0.1,16.1,0,24.1-1.1c1.4-0.2,2.7-0.4,4-0.7c0.7-0.2,1.3-0.4,2-0.6c0.3-0.1,0.6-0.3,0.9-0.5
								c0.3-0.2,0.5-0.4,0.6-0.7c0.1-0.3-0.1-0.6-0.4-0.9c-0.1-0.1-0.3-0.2-0.4-0.3c-0.1-0.1-0.3-0.1-0.5-0.1
								c-0.7-0.1-1.4,0.1-2,0.2c-1.4,0.2-2.7,0.5-4.1,0.7C204.4,258.3,198.9,258.9,193.5,258.7z"/>
						</g>
					</g>
				</g>
				<g>
					<g>
						<g>
							<path class="st7" d="M164.7,252c9.2,0.2,18.3-1.3,27.4-2.7c9.1-1.4,18.3-2.6,27.5-2.3c-5.1,0-10.2,0.3-15.2,0.9
								c-7.9,0.8-15.6,2.3-23.5,3.3C175.5,251.8,170.1,252.2,164.7,252z"/>
						</g>
					</g>
				</g>
				<g>
					<g>
						<g>
							<path class="st7" d="M140.7,238c-1.6-0.4-3.1-0.8-4.7-1.3c-0.8-0.2-1.5-0.5-2.3-0.8c-0.4-0.2-0.7-0.3-1.1-0.6
								c-0.1-0.1-0.4-0.3-0.3-0.7c0.2-0.3,0.4-0.3,0.6-0.4c0.8-0.2,1.6-0.2,2.4-0.2c0.8,0,1.6,0.1,2.4,0.2c1.6,0.2,3.2,0.4,4.8,0.7
								l19,3.5c6.3,1.1,12.7,2.2,19,3.1c3.2,0.4,6.4,0.8,9.6,1c3.2,0.2,6.4,0.4,9.6,0.2c-3.5,0.3-7.1,0.1-10.7-0.1
								c-3.6-0.2-7.1-0.7-10.6-1.1c-11-1.5-21.8-3.7-32.7-5.7c-3.7-0.7-7.4-1.6-11.2-1.6c-0.5,0-0.9,0-1.4,0.1
								c-0.2,0-0.5,0.1-0.7,0.2c-0.1,0.1-0.1,0.2-0.1,0.3c0.1,0.1,0.1,0.2,0.2,0.3c0.8,0.6,1.7,0.9,2.6,1.2
								C137.1,237,138.9,237.5,140.7,238z"/>
						</g>
					</g>
				</g>
				<g>
					<g>
						<g>
							<path class="st7" d="M143.5,218c11.7,1.6,23.6,1.6,35.4,1.5c11.8-0.2,23.7-0.6,35.5-1.1c-6.5,0.4-13.1,0.7-19.6,1
								c-10.2,0.3-20.4,0.5-30.5,0.3C157.3,219.5,150.3,219.1,143.5,218z"/>
						</g>
					</g>
				</g>
			</g>
		</g>
		<g>
			<g>
				<path class="st2" d="M240.5,193.8c-0.3,0.9-0.3,1.8-0.6,2.7c-0.3,0.9-0.8,1.7-1.1,2.5c-0.3,0.8,0.1,1.7,0.1,2.5
					c-0.1,0.9-0.9,1.7-1.3,2.5c-0.4,0.8-0.3,1.8-0.5,2.7c-0.2,1-0.6,2.1-0.9,3.1c-0.2,0.6-0.9,1.1-1.3,1.5c-0.7,0.7-0.8,1.7-1.1,2.6
					c-0.6,1.8,0.2,3.3-0.7,5c-0.9,1.7-0.8,4-0.9,5.9c0,1.6-0.4,3.7-1.2,5.1c-1,1.6-0.5,4-0.1,5.8c0.2,1-0.7,2-0.8,3
					c-0.1,1,1.1,1.9,1.1,2.9c0,1-0.2,1.9-0.3,2.8c-0.1,1.2,0.6,2.1,0.6,3.3c0.1,1-0.4,1.9-0.3,2.9c0.1,0.9,0.1,1.9,0.2,2.8
					c0.1,0.9,0.4,1.9,0.5,2.8c0.1,1-0.4,2.2-0.1,3.2c0.3,0.8,1.2,1.5,1.3,2.3c0.1,0.9,0.3,1.9,0.4,2.8c0.1,0.9,0.9,1.9,1.1,2.8
					c0.2,1.1-0.3,2.2,0,3.3c0.6,1.8,1.1,3.6,1.7,5.5c0.3,0.9,0.9,1.7,0.8,2.7c-0.1,1.1-0.6,1.9-0.3,3c0.2,1.1,1.4,2.4,2,3.4
					c0.9,1.4,0.7,2.1,0.4,3.6c-0.3,1.3,0.8,2.3,0.9,3.5c0.2,1.4,1.5,2.8,1.4,4.2c-0.1,1.3,0.1,2.5,0.2,3.8c0.1,1.3,1.9,2.9,1.5,4.2
					c-0.4,1.5-0.6,2.2,0.1,3.6c0.6,1.1,0.3,2.7,0.3,3.9"/>
			</g>
			<g>
				<path class="st2" d="M110.8,193.8c0.3,0.9,0.3,1.8,0.6,2.7c0.3,0.9,0.8,1.7,1.1,2.5c0.3,0.8-0.1,1.7-0.1,2.5
					c0.1,0.9,0.9,1.7,1.3,2.5c0.4,0.8,0.3,1.8,0.5,2.7c0.2,1,0.6,2.1,0.9,3.1c0.2,0.6,0.9,1.1,1.3,1.5c0.7,0.7,0.8,1.7,1.1,2.6
					c0.6,1.8-0.2,3.3,0.7,5c0.9,1.7,0.8,4,0.9,5.9c0,1.6,0.4,3.7,1.2,5.1c1,1.6,0.5,4,0.1,5.8c-0.2,1,0.7,2,0.8,3
					c0.1,1-1.1,1.9-1.1,2.9c0,1,0.2,1.9,0.3,2.8c0.1,1.2-0.6,2.1-0.6,3.3c-0.1,1,0.4,1.9,0.3,2.9c-0.1,0.9-0.1,1.9-0.2,2.8
					c-0.1,0.9-0.4,1.9-0.5,2.8c-0.1,1,0.4,2.2,0.1,3.2c-0.3,0.8-1.2,1.5-1.3,2.3c-0.1,0.9-0.3,1.9-0.4,2.8c-0.1,0.9-0.9,1.9-1.1,2.8
					c-0.2,1.1,0.3,2.2,0,3.3c-0.6,1.8-1.1,3.6-1.7,5.5c-0.3,0.9-0.9,1.7-0.8,2.7c0.1,1.1,0.6,1.9,0.3,3c-0.2,1.1-1.4,2.4-2,3.4
					c-0.9,1.4-0.7,2.1-0.4,3.6c0.3,1.3-0.8,2.3-0.9,3.5c-0.2,1.4-1.5,2.8-1.4,4.2c0.1,1.3-0.1,2.5-0.2,3.8c-0.1,1.3-1.9,2.9-1.5,4.2
					c0.4,1.5,0.6,2.2-0.1,3.6c-0.6,1.1-0.3,2.7-0.3,3.9"/>
			</g>
		</g>
	</g>
	<path class="st2" d="M235,123.6c0,0-10.8,54.6,5.6,70.7"/>
	<line class="st2" x1="203.4" y1="111.9" x2="235.4" y2="123.7"/>
	<path class="st2" d="M116.3,123.6c0,0,10.8,54.6-5.6,70.7"/>
	<line class="st2" x1="148" y1="111.9" x2="115.9" y2="123.7"/>
	<g>
		<g>
			<g>
				<path class="st3" d="M232.5,122.8c-1.8,10.8-10.3,60.3,7.8,74.5"/>
			</g>
		</g>
		<g>
			<g>
				<path class="st3" d="M118.8,122.6c2.5,14.5,9.3,60.7-7.5,74.1"/>
			</g>
		</g>
	</g>
	<line class="st4" x1="203.2" y1="115.3" x2="234" y2="126.6"/>
	<line class="st4" x1="148.1" y1="115.3" x2="117.3" y2="126.6"/>
	<g>
		<g>
			<g>
				<path class="st8" d="M107.8,311.7c0,0,24.5,20.9,65.9,20.9c42.4,0,69.9-20.9,69.9-20.9"/>
			</g>
		</g>
		<g>
			<g>
				<g>
					<path class="st9" d="M107.8,308.2c0,0,24.5,20.9,65.9,20.9c42.4,0,69.9-20.9,69.9-20.9"/>
				</g>
			</g>
			<g>
				<g>
					<path class="st9" d="M107.8,306.2c0,0,24.5,20.9,65.9,20.9c42.4,0,69.9-20.9,69.9-20.9"/>
				</g>
			</g>
		</g>
	</g>
</g>
<g id="Layer_3" class="st0">
	<g class="st1">
		<g>
			<path class="st2" d="M110.4,194c1.9,13.1,9.4,26.5,9.3,53.8c-0.1,23.7-5.5,37.6-13.4,68.8"/>
			<path class="st2" d="M240.2,194c-1.9,13.1-9.4,26.5-9.3,53.8c0.1,23.7,5.4,37.7,13.3,68.8"/>
		</g>
		<g>
			<path class="st2" d="M116,123.7c0,0,8.2,50.3-5.6,70.7"/>
			<line class="st2" x1="147.6" y1="112.1" x2="115.6" y2="123.9"/>
			<path class="st10" d="M118.7,122.3c0,0,8.7,58-7.7,75.5"/>
			<path class="st2" d="M234.7,123.7c0,0-8.2,50.3,5.6,70.7"/>
			<line class="st2" x1="203" y1="112.1" x2="235.1" y2="123.9"/>
			<path class="st10" d="M232,122.3c0,0-8.7,58,7.7,75.5"/>
		</g>
	</g>
	<g class="st1">
		<path class="st8" d="M106.4,316.3c0,0,23.9,5.3,68.7,5.3c45.4,0.2,69.3-5.3,69.3-5.3"/>
		<path class="st9" d="M107.1,313.3c0,0,23.7,5.3,68,5.3c45,0.2,68.6-5.3,68.6-5.3"/>
	</g>
</g>
<g id="Layer_5" class="st0">
	<g class="st1">
		<g>
			<path class="st11" d="M118.1,176c2.8-21.5-1.6-47.6-2.3-52c-2.2-2.7-7.8-0.2-12.9-3l0,0c0,9.4,1.9,20,2.5,18
				c1.3-3.6,3.3,2.3,0.5,4c-2,3.1,3.5,7.5,2.9,12.4C107.6,163.5,116,165.1,118.1,176z"/>
			<g>
				<g>
					<g>
						<g>
							<path class="st10" d="M118.3,170.5c-3.1-6.5-8.9-9.8-7.6-14.9c1.2-5-4.8-9.3-2.9-12.4c2.8-1.7-0.3-8.3-0.6-4.4
								c-0.2,1.9-2.3-4.1-2.7-17"/>
						</g>
					</g>
					<path class="st12" d="M105.1,139.4c0,0,0.8,0.2,1.9,0.2"/>
					<g>
						<g>
							<g>
								<path class="st13" d="M111.1,142.3c1.5-0.5,2.5-1.2,3.1-1.8c0.3-0.3,0.5-0.5,0.7-0.7c0.1-0.2,0.2-0.3,0.2-0.3
									s-0.1,0.1-0.2,0.2c-0.1,0.1-0.3,0.3-0.5,0.5c-0.4,0.4-0.9,0.7-1.2,0.8c-0.9,0.5-1.9,0.9-2.2,1c-1.6,0.6-3.4,0.9-5.1,1.1
									l0,0.2C107.7,143.3,109.4,142.9,111.1,142.3z"/>
							</g>
						</g>
					</g>
					<g>
						<g>
							<g>
								<path class="st13" d="M110.2,137.7c1.1-0.1,1.9-0.3,2.4-0.5c0.5-0.2,0.8-0.4,0.8-0.4s-0.3,0.2-0.6,0.3
									c-0.3,0.1-0.7,0.2-1,0.2c-0.7,0.1-1.5,0.2-1.7,0.2c-1.2,0.1-2.4,0.2-3.6,0.1l0,0.2C107.7,137.9,109,137.8,110.2,137.7z"/>
							</g>
						</g>
					</g>
					<g>
						<g>
							<g>
								<path class="st14" d="M115.3,155.7c-0.3,1.8,0,3.3,0.2,4.3c0.2,1,0.5,1.5,0.5,1.5s-0.2-0.5-0.3-1.1
									c-0.1-0.6-0.2-1.3-0.2-1.7c-0.1-1.2,0-2.6,0.1-2.9c0.3-2.1,1.2-4,2.5-5.6l-0.2-0.2C116.6,151.6,115.6,153.6,115.3,155.7z"/>
							</g>
						</g>
					</g>
				</g>
				<g>
					<g>
						<g>
							<g>
								<path class="st15" d="M114.7,125c-0.8-0.3-1.6-0.5-2.5-0.6c-0.4,0-0.8,0-1.2,0c-0.2,0-0.4,0.1-0.5,0.2
									c-0.1,0.1-0.1,0.1-0.1,0.1c0,0,0.1,0.1,0.2,0.1c0.7,0.3,1.6,0.4,2.4,0.5c0.8,0.1,1.7,0,2.6,0c-0.9,0.1-1.9,0.2-2.8,0.2
									c-0.7-0.1-1.5-0.1-2.2-0.4c-0.1,0-0.2-0.1-0.3-0.2c-0.1-0.1-0.2-0.2-0.1-0.4c0.2-0.3,0.4-0.3,0.6-0.3
									c0.4-0.1,0.8-0.1,1.1-0.1C112.8,124.3,113.8,124.6,114.7,125z"/>
							</g>
						</g>
					</g>
					<g>
						<g>
							<g>
								<path class="st15" d="M111.6,127.3c0.6,0.2,1.3,0.2,2,0c0.7-0.2,1.3-0.5,1.9-0.8c-0.3,0.3-0.6,0.5-1,0.7
									c-0.6,0.2-1.2,0.4-1.8,0.5C112.3,127.7,111.9,127.5,111.6,127.3z"/>
							</g>
						</g>
					</g>
					<g>
						<g>
							<g>
								<path class="st15" d="M112.7,133.3c0-0.3,0.2-0.4,0.3-0.6c0.1-0.1,0.3-0.3,0.4-0.4c0.3-0.2,0.6-0.4,0.9-0.6
									c0.6-0.4,1.3-0.7,2-1c-0.3,0.2-0.7,0.5-1,0.7c-0.6,0.3-1.1,0.6-1.6,1c-0.2,0.1-0.4,0.2-0.6,0.3
									C113,132.9,112.7,133,112.7,133.3z"/>
							</g>
						</g>
					</g>
					<g>
						<g>
							<g>
								<path class="st15" d="M114.1,129.3c0,0.2,0,0.3,0.1,0.3c0.1,0,0.3-0.1,0.5-0.1c0.4-0.2,0.7-0.4,1-0.6
									c-0.1,0.2-0.3,0.4-0.4,0.6c-0.3,0.2-0.6,0.4-1,0.4c-0.1,0-0.3-0.1-0.3-0.3C113.9,129.5,114,129.4,114.1,129.3z"/>
							</g>
						</g>
					</g>
				</g>
			</g>
		</g>
		<g>
			<path class="st11" d="M231.9,176c-2.8-21.5,1.6-47.6,2.3-52c2.2-2.7,7.8-0.2,12.9-3l0,0c0,9.4-1.9,20-2.5,18
				c-1.3-3.6-3.3,2.3-0.5,4c2,3.1-3.5,7.5-2.9,12.4C242.4,163.5,234,165.1,231.9,176z"/>
			<g>
				<g>
					<g>
						<g>
							<path class="st10" d="M231.7,170.5c3.1-6.5,8.9-9.8,7.6-14.9c-1.2-5,4.8-9.3,2.9-12.4c-2.8-1.7,0.3-8.3,0.6-4.4
								c0.2,1.9,2.3-4.1,2.7-17"/>
						</g>
					</g>
					<path class="st12" d="M244.9,139.4c0,0-0.8,0.2-1.9,0.2"/>
					<g>
						<g>
							<g>
								<path class="st13" d="M239,142.1c-1.4-0.5-2.5-1.1-3.1-1.6c-0.3-0.3-0.6-0.5-0.7-0.6c-0.1-0.2-0.2-0.2-0.2-0.2
									s0.1,0.1,0.2,0.2c0.1,0.1,0.3,0.3,0.5,0.5c0.4,0.4,0.9,0.7,1.1,0.9c0.8,0.6,1.9,1,2.2,1.1c1.7,0.6,3.4,0.9,5.2,1.1l0-0.2
									C242.4,143,240.6,142.7,239,142.1z"/>
							</g>
						</g>
					</g>
					<g>
						<g>
							<g>
								<path class="st13" d="M239.9,137.5c-1-0.1-1.9-0.2-2.4-0.4c-0.5-0.2-0.8-0.3-0.8-0.3s0.2,0.2,0.6,0.3
									c0.3,0.2,0.7,0.3,0.9,0.3c0.7,0.2,1.5,0.3,1.7,0.3c1.2,0.1,2.4,0.2,3.6,0.1l0-0.2C242.3,137.6,241.1,137.6,239.9,137.5z"/>
							</g>
						</g>
					</g>
					<g>
						<g>
							<g>
								<path class="st14" d="M234.5,155.8c0.3,1.8,0.1,3.3-0.1,4.2c-0.2,1-0.4,1.5-0.4,1.5s0.2-0.5,0.4-1.1
									c0.2-0.6,0.3-1.3,0.3-1.7c0.2-1.2,0.1-2.6,0-3c-0.3-2.1-1.2-4.1-2.6-5.7l-0.2,0.2C233.2,151.8,234.2,153.7,234.5,155.8z"/>
							</g>
						</g>
					</g>
				</g>
				<g>
					<g>
						<g>
							<g>
								<path class="st15" d="M235.2,124.8c0.8-0.3,1.7-0.5,2.5-0.6c0.4,0,0.9-0.1,1.3,0c0.2,0,0.4,0.1,0.7,0.2
									c0.1,0,0.3,0.3,0.2,0.4c-0.1,0.1-0.2,0.2-0.3,0.3c-0.8,0.4-1.7,0.4-2.6,0.5c-0.9,0.1-1.7,0.1-2.6,0c1-0.1,1.9-0.2,2.8-0.3
									c0.7-0.1,1.5-0.1,2.1-0.4c0.2-0.1,0.3-0.2,0.2-0.2c0-0.1-0.2-0.1-0.4-0.2c-0.3-0.1-0.7-0.1-1.1-0.1
									C237.2,124.4,236.2,124.5,235.2,124.8z"/>
							</g>
						</g>
					</g>
					<g>
						<g>
							<g>
								<path class="st15" d="M238.5,127.6c-0.7,0.3-1.5,0.2-2.2,0c-0.7-0.2-1.3-0.5-2-0.8c0.4,0.1,0.8,0.2,1.2,0.2
									c0.6,0.2,1.1,0.4,1.7,0.5C237.6,127.6,238.1,127.6,238.5,127.6z"/>
							</g>
						</g>
					</g>
					<g>
						<g>
							<g>
								<path class="st15" d="M237,133.3c0-0.2-0.3-0.5-0.6-0.7c-0.3-0.2-0.6-0.4-0.9-0.6c-0.6-0.4-1.3-0.7-1.9-0.9
									c0.4,0.1,0.8,0.1,1.2,0.2c0.6,0.3,1.1,0.6,1.6,1c0.1,0.2,0.3,0.3,0.4,0.5C237,132.9,237.1,133.2,237,133.3z"/>
							</g>
						</g>
					</g>
					<g>
						<g>
							<g>
								<path class="st15" d="M236.2,129.3c0,0.1,0,0.2,0,0.4c0,0.1-0.2,0.3-0.3,0.3c-0.3,0-0.5-0.1-0.7-0.2
									c-0.4-0.2-0.7-0.4-1.1-0.6c0.2,0.1,0.5,0.1,0.7,0.1c0.3,0.2,0.6,0.3,0.9,0.4c0.1,0,0.2,0.1,0.3,0
									C236.2,129.6,236.2,129.4,236.2,129.3z"/>
							</g>
						</g>
					</g>
				</g>
			</g>
		</g>
	</g>
</g>
<g id="Layer_6" class="st0">
	<g class="st1">
		<g>
			<g>
				<path class="st2" d="M116.2,124c-7.2,3-53.3,108-53.7,114c-0.7,10.2,11,96,11,96c0.5,2.5,27.2-0.7,26.8-3.7l-8.5-86.2
					c3.4-2.2,1.9-3.5,2.4-5.5c0,0,10.1-18.5,19.3-32.5"/>
				<g>
					<g>
						<g>
							<g>
								<path class="st16" d="M86.1,245.6c-1.6,0.6-2.8,1.3-3.5,1.9c-0.4,0.3-0.6,0.5-0.8,0.7c-0.2,0.2-0.3,0.3-0.3,0.3
									s0.1-0.1,0.3-0.2c0.2-0.1,0.4-0.3,0.6-0.4c0.5-0.3,1.1-0.6,1.4-0.8c1-0.5,2.2-0.9,2.5-1c1.8-0.7,3.7-1.2,5.5-1.5l-0.1-0.5
									C89.8,244.3,88,244.9,86.1,245.6z"/>
							</g>
						</g>
					</g>
					<g>
						<g>
							<g>
								<path class="st16" d="M91.1,235.3c-0.2-0.3-0.4-0.6-0.6-0.9c-0.1-0.3-0.2-0.6-0.1-0.7c0.1-0.1,0.4-0.2,0.7-0.2
									c0.3,0,0.5,0,0.7,0c0.9,0.1,1.3,0.2,1.3,0.2s-1.8-0.7-2.5-0.5c-0.1,0-0.3,0.1-0.4,0.2c-0.1,0.1-0.2,0.3-0.2,0.5
									c0,0.3,0.1,0.6,0.2,0.8c0.2,0.5,0.4,0.8,0.5,0.9c1.1,1.5,2.3,2.9,3.3,4.4l0.4-0.3C93.4,238.2,92.2,236.8,91.1,235.3z"/>
							</g>
						</g>
					</g>
					<g>
						<g>
							<g>
								<path class="st16" d="M86.3,240.4c-0.3,0.2-0.4,0.7-0.2,1c0.1,0.3,0.4,0.5,0.6,0.7c0.5,0.3,1,0.4,1.4,0.5
									c0.9,0.2,1.7,0.2,2.3,0.2c1.3,0,1.9-0.2,1.9-0.2s-0.7,0-1.5,0c-0.8,0-1.7-0.1-2.1-0.2c-0.7-0.1-1.5-0.4-2-0.8
									c-0.5-0.4-0.3-0.8-0.1-0.9c0.4-0.3,1.1-0.5,1.7-0.5c0.6,0,1.3,0.1,1.9,0.3c1.2,0.3,2.4,0.9,3.5,1.6l0.3-0.4
									c-1.1-0.7-2.4-1.3-3.7-1.6c-0.7-0.2-1.3-0.3-2-0.3C87.7,239.8,86.9,239.9,86.3,240.4z"/>
							</g>
						</g>
					</g>
				</g>
				<path class="st2" d="M73.5,334.1c0-3.3,26.5-6.7,26.8-3.7"/>
			</g>
			<path class="st17" d="M112.7,201.9c-10,15.3-20.8,36-20.8,36c-0.5,2,0.9,3.4-2.5,5.7c-0.4-4.2,3.6,31.2,8.5,85.4"/>
			<g>
				<path class="st10" d="M73.3,330.8c0-3.3,26.5-6.7,26.8-3.7"/>
				<path class="st10" d="M72.8,329.1c0-3.3,26.7-6.9,27.1-3.9"/>
			</g>
		</g>
		<g>
			<g>
				<path class="st2" d="M235.3,124c7.2,3,53.3,108,53.7,114c0.7,10.2-11,96-11,96c-0.5,2.5-27.2-0.7-26.8-3.7l8.5-86.2
					c-3.4-2.2-1.9-3.5-2.4-5.5c0,0-10.1-18.5-19.3-32.5"/>
				<g>
					<g>
						<g>
							<g>
								<path class="st16" d="M265.2,246c1.6,0.6,2.8,1.2,3.6,1.6c0.4,0.2,0.7,0.4,0.9,0.6c0.2,0.1,0.3,0.2,0.3,0.2
									s-0.1-0.1-0.2-0.2c-0.1-0.1-0.3-0.3-0.6-0.5c-0.4-0.4-1-0.7-1.3-0.9c-1-0.6-2.2-1.1-2.5-1.2c-1.8-0.7-3.7-1.2-5.6-1.6
									l-0.1,0.5C261.5,244.8,263.4,245.3,265.2,246z"/>
							</g>
						</g>
					</g>
					<g>
						<g>
							<g>
								<path class="st16" d="M260.8,235.6c0.2-0.3,0.4-0.7,0.6-1c0.1-0.2,0.1-0.4,0.2-0.6c0-0.2,0-0.4-0.2-0.6
									c-0.3-0.3-0.7-0.3-1-0.3c-0.3,0-0.5,0.1-0.7,0.1c-0.9,0.2-1.3,0.4-1.3,0.4s0.5-0.1,1-0.2c0.5-0.1,1.2-0.1,1.4,0
									c0.5,0.1,0.3,0.6,0.1,1c-0.2,0.4-0.4,0.7-0.5,0.8c-1,1.5-2.2,2.9-3.3,4.4l0.4,0.3C258.5,238.5,259.7,237.2,260.8,235.6z"/>
							</g>
						</g>
					</g>
					<g>
						<g>
							<g>
								<path class="st16" d="M264.8,240.8c0.3,0.3,0.1,0.7-0.3,1c-0.4,0.3-0.8,0.4-1.3,0.5c-0.9,0.2-1.6,0.3-2.2,0.3
									c-1.2,0.1-1.9,0.1-1.9,0.1s0.7,0.1,1.5,0.1c0.8,0,1.7,0,2.2-0.1c0.8-0.1,1.6-0.3,2.2-0.7c0.3-0.2,0.5-0.6,0.5-1
									c0-0.4-0.3-0.5-0.3-0.7c-0.6-0.5-1.3-0.6-2-0.6c-0.7,0-1.4,0.1-2,0.3c-1.3,0.3-2.5,0.9-3.7,1.6l0.3,0.4
									c1.1-0.7,2.3-1.3,3.6-1.6c0.6-0.2,1.3-0.3,1.9-0.3C263.8,240.3,264.4,240.4,264.8,240.8z"/>
							</g>
						</g>
					</g>
				</g>
				<path class="st2" d="M278,334.1c0-3.3-26.5-6.7-26.8-3.7"/>
			</g>
			<path class="st17" d="M238.8,201.9c10,15.3,20.8,36,20.8,36c0.5,2-0.9,3.4,2.5,5.7c0.4-4.2-3.6,31.2-8.5,85.4"/>
			<g>
				<path class="st10" d="M278.2,330.8c0-3.3-26.5-6.7-26.8-3.7"/>
				<path class="st10" d="M278.7,329.1c0-3.3-26.7-6.9-27.1-3.9"/>
			</g>
		</g>
	</g>
</g>
<g id="Layer_7" class="st0">
	<g class="st1">
		<g>
			<path class="st18" d="M200.7,120.6c-2.9,8.2-9.6,19-25.2,19c-15.3,0-22.2-10.8-25.3-18.9h0c5.3,2.7,13.3,5.1,25.1,5.1
				C187.3,125.8,195.4,123.3,200.7,120.6z"/>
			<g>
				<path class="st19" d="M188.7,144.2l0.1,0.1l-13.5,21.5l-13.5-21.5l0.1-0.2c3.8,1.5,8.2,2.5,13.5,2.5
					C180.6,146.6,185,145.7,188.7,144.2z"/>
				<g>
					<path class="st19" d="M200.7,120.6c1.7-4.9,2.1-8.8,2.1-8.8l6.5,2c-0.1,1.2-2.1,23.1-20.4,30.4c-3.7,1.5-8.1,2.4-13.3,2.4
						c-5.3,0-9.7-0.9-13.5-2.5c-18.8-7.6-20.5-30.4-20.5-30.4v0l6.5-2c0,0,0.4,4,2.3,9c3.1,8.2,10,18.9,25.3,18.9
						C191,139.6,197.8,128.7,200.7,120.6z"/>
					<path class="st19" d="M202.7,111.7L202.7,111.7c0,0-0.3,3.9-2.1,8.8c-5.3,2.7-13.3,5.2-25.3,5.2c-11.8,0-19.8-2.5-25.1-5.1h0
						c-1.9-5-2.3-9-2.3-9s7.9,7.6,27.4,7.6C194.5,119.3,202.2,112.2,202.7,111.7z"/>
				</g>
			</g>
		</g>
		<g>
			<g>
				<g>
					<g>
						<path class="st4" d="M209.2,113.6c0,0-2.3,32.9-33.7,32.9c-31.5,0-34-32.9-34-32.9"/>
						<path class="st10" d="M210.3,113.7c0,0-2.7,33.9-34.9,33.9l0,0c-32.2,0-35.1-33.9-35.1-33.9"/>
						<path class="st2" d="M209.5,113.8l-6.8-2.1c0,0-2.4,27.9-27.3,27.9c-24.6,0-27.5-27.9-27.5-27.9l-6.8,2.1"/>
					</g>
				</g>
				<g>
					<g>
						<path class="st4" d="M147.9,111.6c0,0,7.9,7.6,27.4,7.6c19.8,0,27.4-7.6,27.4-7.6"/>
						<path class="st12" d="M200.7,120.5c-5.3,2.7-13.4,5.2-25.4,5.2c-11.8,0-19.8-2.4-25.1-5.1"/>
						<path class="st20" d="M149.4,119c5,2.9,13.3,5.8,26,5.8c12.7,0,20.8-2.9,25.7-5.7"/>
						<path class="st20" d="M150.5,121.8c5.1,2.6,13.2,4.9,24.9,4.9c12.7,0,21.3-3,25.1-5.1"/>
					</g>
				</g>
			</g>
			<g>
				<polyline class="st10" points="190.1,143.6 175.3,167.1 175.3,167.1 160.6,143.7 				"/>
				<polyline class="st10" points="162.8,144.5 175.3,164.4 187.8,144.4 				"/>
				<polyline class="st12" points="161.8,144.3 175.3,165.8 188.8,144.3 				"/>
			</g>
		</g>
	</g>
</g>
<g id="Layer_8" class="st0">
	<g class="st1">
		<path class="st19" d="M202.6,111.7c0,0.7-0.3,4-1.9,8.9l-0.1,0c-5.3,2.7-13.3,5.2-25.4,5.2c-11.9,0-20-2.5-25.3-5.1l-0.2,0.1
			c-1.6-4.8-1.8-8.2-1.8-8.8c1.6,1.3,10.2,7.1,27.7,7.1C194.8,119,202.2,112.2,202.6,111.7z"/>
		<g>
			<g>
				<g>
					<g>
						<g>
							<g>
								<g>
									<g>
										<line class="st21" x1="147.9" y1="111.9" x2="143.7" y2="117.9"/>
									</g>
								</g>
							</g>
						</g>
					</g>
					<g>
						<g>
							<g>
								<g>
									<g>
										<line class="st21" x1="148.9" y1="112.5" x2="145.1" y2="118.8"/>
									</g>
								</g>
							</g>
						</g>
					</g>
					<g>
						<g>
							<g>
								<g>
									<g>
										<line class="st21" x1="149.9" y1="113.1" x2="146.4" y2="119.5"/>
									</g>
								</g>
							</g>
						</g>
					</g>
					<g>
						<g>
							<g>
								<g>
									<g>
										<line class="st21" x1="151" y1="113.6" x2="147.7" y2="120.2"/>
									</g>
								</g>
							</g>
						</g>
					</g>
					<g>
						<g>
							<g>
								<g>
									<g>
										<line class="st21" x1="152.1" y1="114.2" x2="149.1" y2="120.8"/>
									</g>
								</g>
							</g>
						</g>
					</g>
					<g>
						<g>
							<g>
								<g>
									<g>
										<line class="st21" x1="153.2" y1="114.7" x2="150.4" y2="121.4"/>
									</g>
								</g>
							</g>
						</g>
					</g>
					<g>
						<g>
							<g>
								<g>
									<g>
										<line class="st21" x1="154.4" y1="115.1" x2="151.8" y2="122"/>
									</g>
								</g>
							</g>
						</g>
					</g>
					<g>
						<g>
							<g>
								<g>
									<g>
										<line class="st21" x1="155.5" y1="115.6" x2="153.1" y2="122.5"/>
									</g>
								</g>
							</g>
						</g>
					</g>
					<g>
						<g>
							<g>
								<g>
									<g>
										<line class="st21" x1="156.7" y1="116" x2="154.5" y2="122.9"/>
									</g>
								</g>
							</g>
						</g>
					</g>
					<g>
						<g>
							<g>
								<g>
									<g>
										<line class="st21" x1="157.9" y1="116.3" x2="155.9" y2="123.3"/>
									</g>
								</g>
							</g>
						</g>
					</g>
					<g>
						<g>
							<g>
								<g>
									<g>
										<line class="st21" x1="159.1" y1="116.7" x2="157.3" y2="123.7"/>
									</g>
								</g>
							</g>
						</g>
					</g>
					<g>
						<g>
							<g>
								<g>
									<g>
										<line class="st21" x1="160.4" y1="117" x2="158.6" y2="124.1"/>
									</g>
								</g>
							</g>
						</g>
					</g>
					<g>
						<g>
							<g>
								<g>
									<g>
										<line class="st21" x1="161.6" y1="117.3" x2="160" y2="124.4"/>
									</g>
								</g>
							</g>
						</g>
					</g>
					<g>
						<g>
							<g>
								<g>
									<g>
										<line class="st21" x1="162.8" y1="117.5" x2="161.4" y2="124.7"/>
									</g>
								</g>
							</g>
						</g>
					</g>
					<g>
						<g>
							<g>
								<g>
									<g>
										<line class="st21" x1="164.1" y1="117.7" x2="162.9" y2="124.9"/>
									</g>
								</g>
							</g>
						</g>
					</g>
					<g>
						<g>
							<g>
								<g>
									<g>
										<line class="st21" x1="165.4" y1="117.9" x2="164.3" y2="125.2"/>
									</g>
								</g>
							</g>
						</g>
					</g>
					<g>
						<g>
							<g>
								<g>
									<g>
										<line class="st21" x1="166.6" y1="118.1" x2="165.7" y2="125.4"/>
									</g>
								</g>
							</g>
						</g>
					</g>
					<g>
						<g>
							<g>
								<g>
									<g>
										<line class="st21" x1="167.9" y1="118.3" x2="167.1" y2="125.5"/>
									</g>
								</g>
							</g>
						</g>
					</g>
					<g>
						<g>
							<g>
								<g>
									<g>
										<line class="st21" x1="169.1" y1="118.4" x2="168.5" y2="125.7"/>
									</g>
								</g>
							</g>
						</g>
					</g>
					<g>
						<g>
							<g>
								<g>
									<g>
										<line class="st21" x1="170.4" y1="118.5" x2="169.9" y2="125.8"/>
									</g>
								</g>
							</g>
						</g>
					</g>
					<g>
						<g>
							<g>
								<g>
									<g>
										<line class="st21" x1="171.7" y1="118.6" x2="171.3" y2="125.9"/>
									</g>
								</g>
							</g>
						</g>
					</g>
					<g>
						<g>
							<g>
								<g>
									<g>
										<line class="st21" x1="173" y1="118.6" x2="172.8" y2="125.9"/>
									</g>
								</g>
							</g>
						</g>
					</g>
					<g>
						<g>
							<g>
								<g>
									<g>
										<line class="st21" x1="174.3" y1="118.6" x2="174.2" y2="126"/>
									</g>
								</g>
							</g>
						</g>
					</g>
					<g>
						<g>
							<g>
								<g>
									<g>
										<line class="st21" x1="175.6" y1="118.7" x2="175.6" y2="126"/>
									</g>
								</g>
							</g>
						</g>
					</g>
					<g>
						<g>
							<g>
								<g>
									<g>
										<line class="st21" x1="176.8" y1="118.6" x2="177" y2="125.9"/>
									</g>
								</g>
							</g>
						</g>
					</g>
					<g>
						<g>
							<g>
								<g>
									<g>
										<line class="st21" x1="178.1" y1="118.6" x2="178.4" y2="125.9"/>
									</g>
								</g>
							</g>
						</g>
					</g>
					<g>
						<g>
							<g>
								<g>
									<g>
										<line class="st21" x1="179.4" y1="118.5" x2="179.8" y2="125.8"/>
									</g>
								</g>
							</g>
						</g>
					</g>
					<g>
						<g>
							<g>
								<g>
									<g>
										<line class="st21" x1="180.7" y1="118.4" x2="181.2" y2="125.7"/>
									</g>
								</g>
							</g>
						</g>
					</g>
					<g>
						<g>
							<g>
								<g>
									<g>
										<line class="st21" x1="182" y1="118.4" x2="182.7" y2="125.6"/>
									</g>
								</g>
							</g>
						</g>
					</g>
					<g>
						<g>
							<g>
								<g>
									<g>
										<line class="st21" x1="183.2" y1="118.2" x2="184.1" y2="125.5"/>
									</g>
								</g>
							</g>
						</g>
					</g>
					<g>
						<g>
							<g>
								<g>
									<g>
										<line class="st21" x1="184.5" y1="118.1" x2="185.5" y2="125.3"/>
									</g>
								</g>
							</g>
						</g>
					</g>
					<g>
						<g>
							<g>
								<g>
									<g>
										<line class="st21" x1="185.8" y1="117.9" x2="186.9" y2="125.1"/>
									</g>
								</g>
							</g>
						</g>
					</g>
					<g>
						<g>
							<g>
								<g>
									<g>
										<line class="st21" x1="187" y1="117.7" x2="188.3" y2="124.9"/>
									</g>
								</g>
							</g>
						</g>
					</g>
					<g>
						<g>
							<g>
								<g>
									<g>
										<line class="st21" x1="188.3" y1="117.4" x2="189.7" y2="124.6"/>
									</g>
								</g>
							</g>
						</g>
					</g>
					<g>
						<g>
							<g>
								<g>
									<g>
										<line class="st21" x1="189.5" y1="117.2" x2="191.1" y2="124.3"/>
									</g>
								</g>
							</g>
						</g>
					</g>
					<g>
						<g>
							<g>
								<g>
									<g>
										<line class="st21" x1="190.7" y1="116.9" x2="192.5" y2="124"/>
									</g>
								</g>
							</g>
						</g>
					</g>
					<g>
						<g>
							<g>
								<g>
									<g>
										<line class="st21" x1="192" y1="116.5" x2="193.9" y2="123.6"/>
									</g>
								</g>
							</g>
						</g>
					</g>
					<g>
						<g>
							<g>
								<g>
									<g>
										<line class="st21" x1="193.2" y1="116.2" x2="195.3" y2="123.2"/>
									</g>
								</g>
							</g>
						</g>
					</g>
					<g>
						<g>
							<g>
								<g>
									<g>
										<line class="st21" x1="194.4" y1="115.8" x2="196.6" y2="122.8"/>
									</g>
								</g>
							</g>
						</g>
					</g>
					<g>
						<g>
							<g>
								<g>
									<g>
										<line class="st21" x1="195.5" y1="115.4" x2="198" y2="122.3"/>
									</g>
								</g>
							</g>
						</g>
					</g>
					<g>
						<g>
							<g>
								<g>
									<g>
										<line class="st21" x1="196.7" y1="115" x2="199.4" y2="121.8"/>
									</g>
								</g>
							</g>
						</g>
					</g>
					<g>
						<g>
							<g>
								<g>
									<g>
										<line class="st21" x1="197.9" y1="114.5" x2="200.7" y2="121.2"/>
									</g>
								</g>
							</g>
						</g>
					</g>
					<g>
						<g>
							<g>
								<g>
									<g>
										<line class="st21" x1="199" y1="114" x2="202.1" y2="120.7"/>
									</g>
								</g>
							</g>
						</g>
					</g>
					<g>
						<g>
							<g>
								<g>
									<g>
										<line class="st21" x1="200.1" y1="113.5" x2="203.4" y2="120"/>
									</g>
								</g>
							</g>
						</g>
					</g>
					<g>
						<g>
							<g>
								<g>
									<g>
										<line class="st21" x1="201.2" y1="112.9" x2="204.7" y2="119.3"/>
									</g>
								</g>
							</g>
						</g>
					</g>
					<g>
						<g>
							<g>
								<g>
									<g>
										<line class="st21" x1="202.2" y1="112.3" x2="206" y2="118.5"/>
									</g>
								</g>
							</g>
						</g>
					</g>
				</g>
			</g>
		</g>
		<g>
			<g>
				<g>
					<g>
						<path class="st19" d="M202.6,111.6l6.5,2.1c0,0-0.4,25.6-33.8,46.4c0,0,0,0-0.1,0v-7.7c16.1-11,22.7-23.6,25.4-31.8
							c1.6-4.8,1.9-8.2,1.9-8.9C202.6,111.6,202.6,111.6,202.6,111.6z"/>
						<path class="st19" d="M149.7,120.9c2.7,8.3,9.3,20.9,25.6,31.7v7.7c-34.3-20.7-33.9-46.3-33.9-46.3l0,0l6.4-1.9
							c0,0,0.1,0,0.1,0.1C147.9,112.7,148.2,116.1,149.7,120.9z"/>
					</g>
				</g>
				<path class="st18" d="M149.9,120.6c5.3,2.7,13.5,5.1,25.3,5.1c12.1,0,20.2-2.5,25.4-5.2l0.1,0c-2.7,8.2-9.3,20.8-25.4,31.8
					c-16.3-10.8-23-23.4-25.6-31.7L149.9,120.6z"/>
			</g>
			<g>
				<g>
					<g>
						<path class="st4" d="M147.6,111.6c0,0,8.4,7.3,28,7.3c19.8,0,27.1-7.3,27.1-7.3"/>
						<path class="st12" d="M200.6,120.5c-5.3,2.7-13.4,5.2-25.4,5.2c-11.9,0-20-2.4-25.3-5.1"/>
						<path class="st20" d="M149.1,119c5.1,2.9,13.3,5.8,26.1,5.8c12.8,0,20.9-2.9,25.9-5.7"/>
						<path class="st20" d="M150.3,121.9c5.1,2.6,13.1,4.8,25,4.8c12.2,0,20.3-2.4,25.3-5.1"/>
					</g>
				</g>
				<g>
					<path class="st10" d="M210.2,114.2c0,0-1.3,26.8-34.3,46.8l-0.6,0.4l0,0l-0.6-0.4c-33.7-19.3-34.5-46.7-34.5-46.7"/>
					<path class="st10" d="M142.5,113.7c0,0.3,0.1,25,32.8,45c31.8-20.1,32.6-44.8,32.6-45"/>
					<g>
						<g>
							<g>
								<path class="st4" d="M209.1,113.6c0,0-0.4,25.6-33.8,46.4c-34.3-20.8-34-46.4-34-46.4"/>
								<g>
									<g>
										<g>
											<g>
												<g>
													<g>
														<g>
															<g>
																<line class="st21" x1="170.9" y1="157.6" x2="175" y2="151.5"/>
															</g>
														</g>
													</g>
												</g>
											</g>
											<g>
												<g>
													<g>
														<g>
															<g>
																<line class="st21" x1="169.8" y1="156.8" x2="173.9" y2="150.7"/>
															</g>
														</g>
													</g>
												</g>
											</g>
											<g>
												<g>
													<g>
														<g>
															<g>
																<line class="st21" x1="168.6" y1="156" x2="172.9" y2="150"/>
															</g>
														</g>
													</g>
												</g>
											</g>
											<g>
												<g>
													<g>
														<g>
															<g>
																<line class="st21" x1="167.5" y1="155.2" x2="171.8" y2="149.3"/>
															</g>
														</g>
													</g>
												</g>
											</g>
											<g>
												<g>
													<g>
														<g>
															<g>
																<line class="st21" x1="166.4" y1="154.3" x2="170.8" y2="148.5"/>
															</g>
														</g>
													</g>
												</g>
											</g>
											<g>
												<g>
													<g>
														<g>
															<g>
																<line class="st21" x1="165.2" y1="153.4" x2="169.8" y2="147.7"/>
															</g>
														</g>
													</g>
												</g>
											</g>
											<g>
												<g>
													<g>
														<g>
															<g>
																<line class="st21" x1="164.1" y1="152.6" x2="168.8" y2="146.9"/>
															</g>
														</g>
													</g>
												</g>
											</g>
											<g>
												<g>
													<g>
														<g>
															<g>
																<line class="st21" x1="163" y1="151.7" x2="167.8" y2="146.1"/>
															</g>
														</g>
													</g>
												</g>
											</g>
											<g>
												<g>
													<g>
														<g>
															<g>
																<line class="st21" x1="162" y1="150.7" x2="166.8" y2="145.2"/>
															</g>
														</g>
													</g>
												</g>
											</g>
											<g>
												<g>
													<g>
														<g>
															<g>
																<line class="st21" x1="160.9" y1="149.8" x2="165.9" y2="144.4"/>
															</g>
														</g>
													</g>
												</g>
											</g>
											<g>
												<g>
													<g>
														<g>
															<g>
																<line class="st21" x1="159.9" y1="148.8" x2="164.9" y2="143.5"/>
															</g>
														</g>
													</g>
												</g>
											</g>
											<g>
												<g>
													<g>
														<g>
															<g>
																<line class="st21" x1="158.9" y1="147.8" x2="164" y2="142.6"/>
															</g>
														</g>
													</g>
												</g>
											</g>
											<g>
												<g>
													<g>
														<g>
															<g>
																<line class="st21" x1="157.9" y1="146.8" x2="163.1" y2="141.7"/>
															</g>
														</g>
													</g>
												</g>
											</g>
											<g>
												<g>
													<g>
														<g>
															<g>
																<line class="st21" x1="156.9" y1="145.8" x2="162.3" y2="140.8"/>
															</g>
														</g>
													</g>
												</g>
											</g>
											<g>
												<g>
													<g>
														<g>
															<g>
																<line class="st21" x1="155.9" y1="144.7" x2="161.4" y2="139.9"/>
															</g>
														</g>
													</g>
												</g>
											</g>
											<g>
												<g>
													<g>
														<g>
															<g>
																<line class="st21" x1="155" y1="143.6" x2="160.6" y2="138.9"/>
															</g>
														</g>
													</g>
												</g>
											</g>
											<g>
												<g>
													<g>
														<g>
															<g>
																<line class="st21" x1="154.1" y1="142.6" x2="159.7" y2="137.9"/>
															</g>
														</g>
													</g>
												</g>
											</g>
											<g>
												<g>
													<g>
														<g>
															<g>
																<line class="st21" x1="153.2" y1="141.4" x2="159" y2="136.9"/>
															</g>
														</g>
													</g>
												</g>
											</g>
											<g>
												<g>
													<g>
														<g>
															<g>
																<line class="st21" x1="152.3" y1="140.3" x2="158.2" y2="135.9"/>
															</g>
														</g>
													</g>
												</g>
											</g>
											<g>
												<g>
													<g>
														<g>
															<g>
																<line class="st21" x1="151.5" y1="139.2" x2="157.4" y2="134.9"/>
															</g>
														</g>
													</g>
												</g>
											</g>
											<g>
												<g>
													<g>
														<g>
															<g>
																<line class="st21" x1="150.7" y1="138" x2="156.7" y2="133.9"/>
															</g>
														</g>
													</g>
												</g>
											</g>
											<g>
												<g>
													<g>
														<g>
															<g>
																<line class="st21" x1="149.9" y1="136.8" x2="156" y2="132.8"/>
															</g>
														</g>
													</g>
												</g>
											</g>
											<g>
												<g>
													<g>
														<g>
															<g>
																<line class="st21" x1="149.1" y1="135.6" x2="155.3" y2="131.7"/>
															</g>
														</g>
													</g>
												</g>
											</g>
											<g>
												<g>
													<g>
														<g>
															<g>
																<line class="st21" x1="148.4" y1="134.4" x2="154.7" y2="130.7"/>
															</g>
														</g>
													</g>
												</g>
											</g>
											<g>
												<g>
													<g>
														<g>
															<g>
																<line class="st21" x1="147.6" y1="133.1" x2="154" y2="129.6"/>
															</g>
														</g>
													</g>
												</g>
											</g>
											<g>
												<g>
													<g>
														<g>
															<g>
																<line class="st21" x1="147" y1="131.9" x2="153.4" y2="128.5"/>
															</g>
														</g>
													</g>
												</g>
											</g>
											<g>
												<g>
													<g>
														<g>
															<g>
																<line class="st21" x1="146.3" y1="130.6" x2="152.9" y2="127.3"/>
															</g>
														</g>
													</g>
												</g>
											</g>
											<g>
												<g>
													<g>
														<g>
															<g>
																<line class="st21" x1="145.7" y1="129.3" x2="152.3" y2="126.2"/>
															</g>
														</g>
													</g>
												</g>
											</g>
											<g>
												<g>
													<g>
														<g>
															<g>
																<line class="st21" x1="145.1" y1="128" x2="151.8" y2="125"/>
															</g>
														</g>
													</g>
												</g>
											</g>
											<g>
												<g>
													<g>
														<g>
															<g>
																<line class="st21" x1="144.5" y1="126.7" x2="151.3" y2="123.9"/>
															</g>
														</g>
													</g>
												</g>
											</g>
											<g>
												<g>
													<g>
														<g>
															<g>
																<line class="st21" x1="144" y1="125.3" x2="150.8" y2="122.7"/>
															</g>
														</g>
													</g>
												</g>
											</g>
											<g>
												<g>
													<g>
														<g>
															<g>
																<line class="st21" x1="143.5" y1="124" x2="150.4" y2="121.6"/>
															</g>
														</g>
													</g>
												</g>
											</g>
											<g>
												<g>
													<g>
														<g>
															<g>
																<line class="st21" x1="143" y1="122.6" x2="150" y2="120.4"/>
															</g>
														</g>
													</g>
												</g>
											</g>
											<g>
												<g>
													<g>
														<g>
															<g>
																<line class="st21" x1="142.6" y1="121.2" x2="149.6" y2="119.2"/>
															</g>
														</g>
													</g>
												</g>
											</g>
											<g>
												<g>
													<g>
														<g>
															<g>
																<line class="st21" x1="142.2" y1="119.8" x2="149.3" y2="118"/>
															</g>
														</g>
													</g>
												</g>
											</g>
											<g>
												<g>
													<g>
														<g>
															<g>
																<line class="st21" x1="141.9" y1="118.4" x2="149" y2="116.8"/>
															</g>
														</g>
													</g>
												</g>
											</g>
											<g>
												<g>
													<g>
														<g>
															<g>
																<line class="st21" x1="141.6" y1="117" x2="148.7" y2="115.6"/>
															</g>
														</g>
													</g>
												</g>
											</g>
											<g>
												<g>
													<g>
														<g>
															<g>
																<line class="st21" x1="141.3" y1="115.5" x2="148.5" y2="114.3"/>
															</g>
														</g>
													</g>
												</g>
											</g>
											<g>
												<g>
													<g>
														<g>
															<g>
																<line class="st21" x1="141.1" y1="114.1" x2="148.3" y2="113.1"/>
															</g>
														</g>
													</g>
												</g>
											</g>
										</g>
									</g>
								</g>
								<g>
									<g>
										<line class="st21" x1="173.4" y1="159.1" x2="175.2" y2="156.2"/>
									</g>
									<g>
										<line class="st21" x1="172.2" y1="158.4" x2="175.2" y2="153.8"/>
									</g>
								</g>
								<g>
									<g>
										<line class="st21" x1="178.5" y1="158.3" x2="175.4" y2="153.8"/>
									</g>
									<g>
										<line class="st21" x1="177.4" y1="159.1" x2="175.3" y2="156.1"/>
									</g>
								</g>
								<g>
									<g>
										<g>
											<g>
												<g>
													<g>
														<g>
															<g>
																<line class="st21" x1="209.5" y1="113.1" x2="202.3" y2="112.1"/>
															</g>
														</g>
													</g>
												</g>
											</g>
											<g>
												<g>
													<g>
														<g>
															<g>
																<line class="st21" x1="209.3" y1="114.6" x2="202.1" y2="113.4"/>
															</g>
														</g>
													</g>
												</g>
											</g>
											<g>
												<g>
													<g>
														<g>
															<g>
																<line class="st21" x1="209" y1="116" x2="201.8" y2="114.6"/>
															</g>
														</g>
													</g>
												</g>
											</g>
											<g>
												<g>
													<g>
														<g>
															<g>
																<line class="st21" x1="208.7" y1="117.4" x2="201.6" y2="115.9"/>
															</g>
														</g>
													</g>
												</g>
											</g>
											<g>
												<g>
													<g>
														<g>
															<g>
																<line class="st21" x1="208.4" y1="118.9" x2="201.3" y2="117.1"/>
															</g>
														</g>
													</g>
												</g>
											</g>
											<g>
												<g>
													<g>
														<g>
															<g>
																<line class="st21" x1="208" y1="120.3" x2="201" y2="118.4"/>
															</g>
														</g>
													</g>
												</g>
											</g>
											<g>
												<g>
													<g>
														<g>
															<g>
																<line class="st21" x1="207.6" y1="121.7" x2="200.6" y2="119.6"/>
															</g>
														</g>
													</g>
												</g>
											</g>
											<g>
												<g>
													<g>
														<g>
															<g>
																<line class="st21" x1="207.2" y1="123.1" x2="200.2" y2="120.8"/>
															</g>
														</g>
													</g>
												</g>
											</g>
											<g>
												<g>
													<g>
														<g>
															<g>
																<line class="st21" x1="206.7" y1="124.5" x2="199.8" y2="122"/>
															</g>
														</g>
													</g>
												</g>
											</g>
											<g>
												<g>
													<g>
														<g>
															<g>
																<line class="st21" x1="206.2" y1="125.9" x2="199.4" y2="123.2"/>
															</g>
														</g>
													</g>
												</g>
											</g>
											<g>
												<g>
													<g>
														<g>
															<g>
																<line class="st21" x1="205.7" y1="127.2" x2="198.9" y2="124.4"/>
															</g>
														</g>
													</g>
												</g>
											</g>
											<g>
												<g>
													<g>
														<g>
															<g>
																<line class="st21" x1="205.1" y1="128.6" x2="198.4" y2="125.6"/>
															</g>
														</g>
													</g>
												</g>
											</g>
											<g>
												<g>
													<g>
														<g>
															<g>
																<line class="st21" x1="204.5" y1="129.9" x2="197.9" y2="126.8"/>
															</g>
														</g>
													</g>
												</g>
											</g>
											<g>
												<g>
													<g>
														<g>
															<g>
																<line class="st21" x1="203.8" y1="131.2" x2="197.3" y2="127.9"/>
															</g>
														</g>
													</g>
												</g>
											</g>
											<g>
												<g>
													<g>
														<g>
															<g>
																<line class="st21" x1="203.2" y1="132.5" x2="196.7" y2="129.1"/>
															</g>
														</g>
													</g>
												</g>
											</g>
											<g>
												<g>
													<g>
														<g>
															<g>
																<line class="st21" x1="202.5" y1="133.8" x2="196.1" y2="130.2"/>
															</g>
														</g>
													</g>
												</g>
											</g>
											<g>
												<g>
													<g>
														<g>
															<g>
																<line class="st21" x1="201.7" y1="135.1" x2="195.5" y2="131.3"/>
															</g>
														</g>
													</g>
												</g>
											</g>
											<g>
												<g>
													<g>
														<g>
															<g>
																<line class="st21" x1="201" y1="136.3" x2="194.8" y2="132.4"/>
															</g>
														</g>
													</g>
												</g>
											</g>
											<g>
												<g>
													<g>
														<g>
															<g>
																<line class="st21" x1="200.2" y1="137.5" x2="194.1" y2="133.5"/>
															</g>
														</g>
													</g>
												</g>
											</g>
											<g>
												<g>
													<g>
														<g>
															<g>
																<line class="st21" x1="199.4" y1="138.7" x2="193.4" y2="134.6"/>
															</g>
														</g>
													</g>
												</g>
											</g>
											<g>
												<g>
													<g>
														<g>
															<g>
																<line class="st21" x1="198.5" y1="139.9" x2="192.6" y2="135.6"/>
															</g>
														</g>
													</g>
												</g>
											</g>
											<g>
												<g>
													<g>
														<g>
															<g>
																<line class="st21" x1="197.6" y1="141.1" x2="191.8" y2="136.6"/>
															</g>
														</g>
													</g>
												</g>
											</g>
											<g>
												<g>
													<g>
														<g>
															<g>
																<line class="st21" x1="196.7" y1="142.2" x2="191" y2="137.7"/>
															</g>
														</g>
													</g>
												</g>
											</g>
											<g>
												<g>
													<g>
														<g>
															<g>
																<line class="st21" x1="195.8" y1="143.3" x2="190.2" y2="138.6"/>
															</g>
														</g>
													</g>
												</g>
											</g>
											<g>
												<g>
													<g>
														<g>
															<g>
																<line class="st21" x1="194.9" y1="144.4" x2="189.4" y2="139.6"/>
															</g>
														</g>
													</g>
												</g>
											</g>
											<g>
												<g>
													<g>
														<g>
															<g>
																<line class="st21" x1="193.9" y1="145.5" x2="188.5" y2="140.6"/>
															</g>
														</g>
													</g>
												</g>
											</g>
											<g>
												<g>
													<g>
														<g>
															<g>
																<line class="st21" x1="192.9" y1="146.6" x2="187.6" y2="141.5"/>
															</g>
														</g>
													</g>
												</g>
											</g>
											<g>
												<g>
													<g>
														<g>
															<g>
																<line class="st21" x1="191.9" y1="147.6" x2="186.7" y2="142.4"/>
															</g>
														</g>
													</g>
												</g>
											</g>
											<g>
												<g>
													<g>
														<g>
															<g>
																<line class="st21" x1="190.9" y1="148.6" x2="185.8" y2="143.4"/>
															</g>
														</g>
													</g>
												</g>
											</g>
											<g>
												<g>
													<g>
														<g>
															<g>
																<line class="st21" x1="189.8" y1="149.6" x2="184.8" y2="144.2"/>
															</g>
														</g>
													</g>
												</g>
											</g>
											<g>
												<g>
													<g>
														<g>
															<g>
																<line class="st21" x1="188.7" y1="150.6" x2="183.9" y2="145.1"/>
															</g>
														</g>
													</g>
												</g>
											</g>
											<g>
												<g>
													<g>
														<g>
															<g>
																<line class="st21" x1="187.6" y1="151.5" x2="182.9" y2="146"/>
															</g>
														</g>
													</g>
												</g>
											</g>
											<g>
												<g>
													<g>
														<g>
															<g>
																<line class="st21" x1="186.5" y1="152.5" x2="181.9" y2="146.8"/>
															</g>
														</g>
													</g>
												</g>
											</g>
											<g>
												<g>
													<g>
														<g>
															<g>
																<line class="st21" x1="185.4" y1="153.4" x2="180.9" y2="147.6"/>
															</g>
														</g>
													</g>
												</g>
											</g>
											<g>
												<g>
													<g>
														<g>
															<g>
																<line class="st21" x1="184.3" y1="154.2" x2="179.8" y2="148.4"/>
															</g>
														</g>
													</g>
												</g>
											</g>
											<g>
												<g>
													<g>
														<g>
															<g>
																<line class="st21" x1="183.1" y1="155.1" x2="178.8" y2="149.2"/>
															</g>
														</g>
													</g>
												</g>
											</g>
											<g>
												<g>
													<g>
														<g>
															<g>
																<line class="st21" x1="182" y1="156" x2="177.7" y2="150"/>
															</g>
														</g>
													</g>
												</g>
											</g>
											<g>
												<g>
													<g>
														<g>
															<g>
																<line class="st21" x1="180.8" y1="156.8" x2="176.6" y2="150.7"/>
															</g>
														</g>
													</g>
												</g>
											</g>
											<g>
												<g>
													<g>
														<g>
															<g>
																<line class="st21" x1="179.6" y1="157.6" x2="175.6" y2="151.5"/>
															</g>
														</g>
													</g>
												</g>
											</g>
										</g>
									</g>
								</g>
								<path class="st2" d="M141.1,113.7l6.7-2c0,0,0.5,22.8,27.5,40.6c26.7-18.2,27.3-40.8,27.3-40.8l6.5,2.1"/>
							</g>
						</g>
						<line class="st12" x1="175.3" y1="152.3" x2="175.3" y2="160"/>
					</g>
				</g>
			</g>
		</g>
	</g>
</g>
</svg>
