<?xml version="1.0" encoding="utf-8"?>
<!-- Generator: Adobe Illustrator 21.0.0, SVG Export Plug-In . SVG Version: 6.00 Build 0)  -->
<svg version="1.1" xmlns="http://www.w3.org/2000/svg" xmlns:xlink="http://www.w3.org/1999/xlink" x="0px" y="0px"
	 viewBox="0 0 350 450" style="enable-background:new 0 0 350 450;" xml:space="preserve">
<style type="text/css">
	.st0{fill:none;stroke:#010101;stroke-width:0.75;stroke-linejoin:round;}
	.st1{fill:#242021;}
	.st2{fill:none;stroke:#010101;stroke-linejoin:round;}
	.st3{fill:none;stroke:#010101;stroke-width:0.5;stroke-linejoin:round;stroke-dasharray:2,1;}
	.st4{fill:none;stroke:#010101;stroke-width:0.6;stroke-linejoin:round;}
	.st5{display:none;}
	.st6{display:inline;}
	.st7{fill:none;stroke:#010101;stroke-linecap:round;stroke-linejoin:round;}
</style>
<g id="Layer_1">
	<g>
		<g>
			<g>
				<g>
					<line class="st0" x1="175.5" y1="46.8" x2="175.5" y2="114.2"/>
				</g>
			</g>
			<g>
				<g>
					<g>
						<path class="st1" d="M186.5,102.7c-0.9,0.9-2,1.5-3.1,2.2c-1.1,0.6-2.2,1.2-3.3,1.7c-2.2,1.1-4.5,2.1-6.7,3.1l-6.8,3
							c-2.2,1-4.5,1.9-6.7,3.1c-0.1,0.1-0.2,0.2-0.4,0.2c0,0-0.1,0.1-0.1,0.1c0,0,0,0,0-0.1c0-0.1-0.1-0.2-0.1-0.2c0,0,0.2,0,0.3,0
							c0.1,0,0.3,0,0.4,0c0.6-0.1,1.2-0.2,1.8-0.3c1.2-0.2,2.4-0.5,3.6-0.8c2.4-0.6,4.8-1.2,7.2-1.8c4.8-1.3,9.5-2.6,14.3-3.9
							l14.2-4l1.8-0.5l0.2-0.1l0,0l0,0c0.2,0-0.5,0,0.1,0.5c0.1,0,0,0-0.1,0l-0.4,0.1l-0.9,0.2l-3.6,1c-2.4,0.7-4.7,1.4-7.1,2.2
							c-4.7,1.5-9.3,3.1-13.9,4.9c-2.3,0.9-4.5,1.9-6.7,3c-1.1,0.6-2.2,1.2-3.2,1.8c-1,0.7-2,1.4-2.6,2.4c0.7-1.1,1.8-1.9,2.9-2.6
							c1.1-0.7,2.3-1.4,3.5-2c2.4-1.2,4.9-2.3,7.5-3.4c5.1-2.1,10.2-3.9,15.4-5.6c2-0.6,4.1-1.2,6.1-1.8l1.5-0.4l0.8-0.2l0.4-0.1
							l0.2,0l0.1,0l0,0c-0.2-0.1,0.4,0,0.3,0.3c0,0.1-0.2,0.2-0.2,0.2l0,0l-0.1,0l-3.1,0.9l-12.2,3.4c-8.2,2.2-16.3,4.6-24.6,6.5
							c-0.7,0.1-1.4,0.3-2.1,0.4c-0.4,0.1-0.7,0.1-1.1,0.2c-0.2,0-0.4,0-0.6,0c-0.1,0-0.2,0-0.3,0c-0.1,0-0.1,0-0.2-0.1
							c0,0-0.1-0.1-0.1-0.2c0-0.1,0-0.2,0-0.2c0.2-0.3,0.3-0.3,0.5-0.5c0.2-0.1,0.3-0.2,0.5-0.3c0.3-0.2,0.6-0.3,1-0.5
							c0.7-0.3,1.3-0.6,2-0.9c2.7-1.2,5.3-2.2,8-3.4c2.7-1.1,5.3-2.2,8-3.4c1.3-0.6,2.6-1.2,3.9-1.9
							C184.1,104.4,185.4,103.8,186.5,102.7z"/>
					</g>
				</g>
			</g>
			<g>
				<path class="st2" d="M112.8,42c-3.4,15-9,44.5-9,60.2c0,44.5,0.5,99.8,0.5,150.4c0,69.1-0.8,89.1-1.5,170.3
					c5.7,3.5,26.1,5.2,33.1,5.2c9.8,0,24.9-2.8,28.6-5.5c0-90.9,0.8-122.2,0.8-170c0-26.9,5.7-136.9,10.2-138.7"/>
				<path class="st2" d="M238.3,42c3.4,15,9,44.5,9,60.2c0,44.5-0.5,99.8-0.5,150.4c0,69.1,0.8,89.1,1.5,170.3
					c-5.7,3.5-26.1,5.2-33.1,5.2c-9.8,0-24.9-2.8-28.6-5.5c0-90.9-0.8-122.2-0.8-170c0-26.9-5.7-136.9-10.2-138.7"/>
			</g>
		</g>
		<g>
			<path class="st3" d="M102.8,416.8c5.7,3.5,26.1,5.2,33.1,5.2c9.8,0,24.9-2.8,28.6-5.5"/>
			<path class="st3" d="M248.3,416.8c-5.7,3.5-26.1,5.2-33.1,5.2c-9.8,0-24.9-2.8-28.6-5.5"/>
		</g>
		<g>
			<path class="st4" d="M160.4,424.5c0-90.9,0.8-124.2,0.8-172c0-26.9,4.2-137.9,14-142.7"/>
			<path class="st4" d="M190.7,424.5c0-90.9-0.8-124.2-0.8-172c0-26.9-4.2-137.9-14-142.7"/>
		</g>
	</g>
</g>
<g id="Layer_2" class="st5">
	<g class="st6">
		<g>
			<g>
				<g>
					<path class="st1" d="M134.4,411.7l-0.5-164.7c-0.1-54.9,0.1-109.8,1.2-164.7c-0.4,30.4-0.4,60.8-0.3,91.2
						c-0.2,47.2-0.1,94.4,0.1,141.6L134.4,411.7z"/>
				</g>
			</g>
		</g>
		<g>
			<g>
				<g>
					<path class="st1" d="M214.8,411.7l0.5-164.7c0.1-54.9-0.1-109.8-1.2-164.6c0.9,30.4,1.5,60.8,2,91.2
						c0.2,47.2,0.1,94.4-0.1,141.6L214.8,411.7z"/>
				</g>
			</g>
		</g>
	</g>
	<g class="st6">
		<g>
			<path class="st3" d="M114.2,405.9c0,2,16.4,5.9,20.2,5.9c4.8,0,21.7-3.8,21.7-6.2"/>
			<path class="st3" d="M235.7,405.9c0,2-16.4,5.9-20.2,5.9c-4.8,0-21.7-3.8-21.7-6.2"/>
		</g>
		<g>
			<g>
				<g>
					<line class="st7" x1="175.9" y1="78.2" x2="178.6" y2="78.2"/>
					<line class="st7" x1="184.4" y1="73.7" x2="185.6" y2="70.7"/>
					<path class="st3" d="M186.1,38.8v29.2c0,5.1-3.6,10.4-10.6,10.4"/>
				</g>
				<line class="st0" x1="175.4" y1="38.5" x2="175.4" y2="118.9"/>
				<line class="st3" x1="177.5" y1="38.5" x2="177.5" y2="117.3"/>
			</g>
			<g>
				<g>
					<g>
						<path class="st1" d="M186,107.7c-0.9,0.9-2,1.5-3.1,2.2c-1.1,0.6-2.2,1.2-3.3,1.7c-2.2,1.1-4.5,2.1-6.7,3.1l-6.8,3
							c-2.2,1-4.5,1.9-6.7,3.1c-0.1,0.1-0.2,0.2-0.4,0.2c0,0-0.1,0.1-0.1,0.1c0,0,0,0,0-0.1c0-0.1-0.1-0.2-0.1-0.2c0,0,0.2,0,0.3,0
							c0.1,0,0.3,0,0.4,0c0.6-0.1,1.2-0.2,1.8-0.3c1.2-0.2,2.4-0.5,3.6-0.8c2.4-0.6,4.8-1.2,7.2-1.8c4.8-1.3,9.5-2.6,14.3-3.9
							l14.2-4l1.8-0.5l0.2-0.1l0,0l0,0c0.2,0-0.5,0,0.1,0.5c0.1,0,0,0-0.1,0l-0.4,0.1l-0.9,0.2l-3.6,1c-2.4,0.7-4.7,1.4-7.1,2.2
							c-4.7,1.5-9.3,3.1-13.9,4.9c-2.3,0.9-4.5,1.9-6.7,3c-1.1,0.6-2.2,1.2-3.2,1.8c-1,0.7-2,1.4-2.6,2.4c0.7-1.1,1.8-1.9,2.9-2.6
							c1.1-0.7,2.3-1.4,3.5-2c2.4-1.2,4.9-2.3,7.5-3.4c5.1-2.1,10.2-3.9,15.4-5.6c2-0.6,4.1-1.2,6.1-1.8l1.5-0.4l0.8-0.2l0.4-0.1
							l0.2,0l0.1,0l0,0c-0.2-0.1,0.4,0,0.3,0.3c0,0.1-0.2,0.2-0.2,0.2l0,0l-0.1,0l-3.1,0.9l-12.2,3.4c-8.2,2.2-16.3,4.6-24.6,6.5
							c-0.7,0.1-1.4,0.3-2.1,0.4c-0.4,0.1-0.7,0.1-1.1,0.2c-0.2,0-0.4,0-0.6,0c-0.1,0-0.2,0-0.3,0c-0.1,0-0.1,0-0.2-0.1
							c0,0-0.1-0.1-0.1-0.2c0-0.1,0-0.2,0-0.2c0.2-0.3,0.3-0.3,0.5-0.5c0.2-0.1,0.3-0.2,0.5-0.3c0.3-0.2,0.6-0.3,1-0.5
							c0.7-0.3,1.3-0.6,2-0.9c2.7-1.2,5.3-2.2,8-3.4c2.7-1.1,5.3-2.2,8-3.4c1.3-0.6,2.6-1.2,3.9-1.9
							C183.5,109.4,184.8,108.8,186,107.7z"/>
					</g>
				</g>
			</g>
			<g>
				<path class="st2" d="M112.2,33c-4.2,15.5-11.1,43.3-12,60.2c-1.2,24.3,4.8,114.4,6.5,150c1.8,36.3,5.2,92.2,7.5,167.6
					c0,2,16.4,5.9,20.2,5.9c7.5,0,21.4-3.8,21.4-6.2c2.1-72.6,6.5-130.3,7.8-166.3c1.5-42.7,9.1-117.7,11.2-126.3"/>
				<path class="st2" d="M237.7,33c4.2,15.5,11.1,43.3,12,60.2c1.2,24.3-4.8,114.4-6.5,150c-1.8,36.3-5.2,92.2-7.5,167.6
					c0,2-16.4,5.9-20.2,5.9c-7.5,0-21.4-3.8-21.4-6.2c-2.1-72.6-6.5-130.3-7.8-166.3c-1.5-42.7-9.1-117.7-11.2-126.3"/>
			</g>
			<g>
				<g>
					<path class="st4" d="M152.3,412.9c2.3-75.7,6.4-134.2,8.3-168.8c2.3-43.5,9.5-113.5,14.3-128.6"/>
				</g>
				<g>
					<path class="st4" d="M197.7,412.9c-2.3-75.7-6.4-134.2-8.3-168.8c-2.3-43.5-9.5-113.5-14.3-128.6"/>
				</g>
			</g>
		</g>
		<g>
			<g>
				<path class="st4" d="M116.7,34.2c-4.2,15.5-11.4,43.5-12.2,60.3c-1.2,24.3,5,114.3,6.7,149.9c1.8,36.3,4.5,93.3,6.8,168.8"/>
				<path class="st3" d="M114.4,33.8c-4.2,15.5-11.4,43.5-12.2,60.3c-1.2,24.3,5,114.3,6.7,149.9c1.8,36.3,4.5,93.3,6.8,168.8"/>
			</g>
			<g>
				<path class="st4" d="M233.2,34.2c4.2,15.5,11.4,43.5,12.2,60.3c1.2,24.3-5,114.3-6.7,149.9c-1.8,36.3-4.5,93.3-6.8,168.8"/>
				<path class="st3" d="M235.6,33.8c4.2,15.5,11.4,43.5,12.2,60.3c1.2,24.3-5,114.3-6.7,149.9c-1.8,36.3-4.5,93.3-6.8,168.8"/>
			</g>
		</g>
	</g>
</g>
<g id="Layer_3" class="st5">
	<g class="st6">
		<g>
			<g>
				<g>
					<line class="st0" x1="89.5" y1="46.8" x2="89.5" y2="114.2"/>
				</g>
			</g>
			<g>
				<g>
					<g>
						<path class="st1" d="M100.5,102.7c-0.9,0.9-2,1.5-3.1,2.2c-1.1,0.6-2.2,1.2-3.3,1.7c-2.2,1.1-4.5,2.1-6.7,3.1l-6.8,3
							c-2.2,1-4.5,1.9-6.7,3.1c-0.1,0.1-0.2,0.2-0.4,0.2c0,0-0.1,0.1-0.1,0.1c0,0,0,0,0-0.1c0-0.1-0.1-0.2-0.1-0.2c0,0,0.2,0,0.3,0
							c0.1,0,0.3,0,0.4,0c0.6-0.1,1.2-0.2,1.8-0.3c1.2-0.2,2.4-0.5,3.6-0.8c2.4-0.6,4.8-1.2,7.2-1.8c4.8-1.3,9.5-2.6,14.3-3.9
							l14.2-4l1.8-0.5l0.2-0.1l0,0l0,0c0.2,0-0.5,0,0.1,0.5c0.1,0,0,0-0.1,0l-0.4,0.1l-0.9,0.2l-3.6,1c-2.4,0.7-4.7,1.4-7.1,2.2
							c-4.7,1.5-9.3,3.1-13.9,4.9c-2.3,0.9-4.5,1.9-6.7,3c-1.1,0.6-2.2,1.2-3.2,1.8c-1,0.7-2,1.4-2.6,2.4c0.7-1.1,1.8-1.9,2.9-2.6
							c1.1-0.7,2.3-1.4,3.5-2c2.4-1.2,4.9-2.3,7.5-3.4c5.1-2.1,10.2-3.9,15.4-5.6c2-0.6,4.1-1.2,6.1-1.8l1.5-0.4l0.8-0.2l0.4-0.1
							l0.2,0l0.1,0l0,0c-0.2-0.1,0.4,0,0.3,0.3c0,0.1-0.2,0.2-0.2,0.2l0,0l-0.1,0l-3.1,0.9l-12.2,3.4c-8.2,2.2-16.3,4.6-24.6,6.5
							c-0.7,0.1-1.4,0.3-2.1,0.4c-0.4,0.1-0.7,0.1-1.1,0.2c-0.2,0-0.4,0-0.6,0c-0.1,0-0.2,0-0.3,0c-0.1,0-0.1,0-0.2-0.1
							c0,0-0.1-0.1-0.1-0.2c0-0.1,0-0.2,0-0.2c0.2-0.3,0.3-0.3,0.5-0.5c0.2-0.1,0.3-0.2,0.5-0.3c0.3-0.2,0.6-0.3,1-0.5
							c0.7-0.3,1.3-0.6,2-0.9c2.7-1.2,5.3-2.2,8-3.4c2.7-1.1,5.3-2.2,8-3.4c1.3-0.6,2.6-1.2,3.9-1.9
							C98.1,104.4,99.4,103.8,100.5,102.7z"/>
					</g>
				</g>
			</g>
			<g>
				<path class="st2" d="M26.8,42c-3.4,15-9,44.5-9,60.2c0,44.5,0.5,99.8,0.5,150.4c0,69.1-0.8,89.1-1.5,170.3
					c5.7,3.5,26.1,5.2,33.1,5.2c9.8,0,24.9-2.8,28.6-5.5c0-90.9,0.8-122.2,0.8-170c0-26.9,5.7-136.9,10.2-138.7"/>
				<path class="st2" d="M152.3,42c3.4,15,9,44.5,9,60.2c0,44.5-0.5,99.8-0.5,150.4c0,69.1,0.8,89.1,1.5,170.3
					c-5.7,3.5-26.1,5.2-33.1,5.2c-9.8,0-24.9-2.8-28.6-5.5c0-90.9-0.8-122.2-0.8-170c0-26.9-5.7-136.9-10.2-138.7"/>
			</g>
		</g>
		<g>
			<path class="st3" d="M16.8,416.8c5.7,3.5,26.1,5.2,33.1,5.2c9.8,0,24.9-2.8,28.6-5.5"/>
			<path class="st3" d="M162.3,416.8c-5.7,3.5-26.1,5.2-33.1,5.2c-9.8,0-24.9-2.8-28.6-5.5"/>
		</g>
		<g>
			<path class="st4" d="M74.4,424.5c0-90.9,0.8-124.2,0.8-172c0-26.9,4.2-137.9,14-142.7"/>
			<path class="st4" d="M104.7,424.5c0-90.9-0.8-124.2-0.8-172c0-26.9-4.2-137.9-14-142.7"/>
		</g>
	</g>
	<g class="st6">
		<g>
			<g>
				<g>
					<line class="st0" x1="260.3" y1="46.8" x2="260.3" y2="114.2"/>
				</g>
			</g>
			<g>
				<g>
					<g>
						<path class="st1" d="M271.3,102.7c-0.9,0.9-2,1.5-3.1,2.2c-1.1,0.6-2.2,1.2-3.3,1.7c-2.2,1.1-4.5,2.1-6.7,3.1l-6.8,3
							c-2.2,1-4.5,1.9-6.7,3.1c-0.1,0.1-0.2,0.2-0.4,0.2c0,0-0.1,0.1-0.1,0.1c0,0,0,0,0-0.1c0-0.1-0.1-0.2-0.1-0.2c0,0,0.2,0,0.3,0
							c0.1,0,0.3,0,0.4,0c0.6-0.1,1.2-0.2,1.8-0.3c1.2-0.2,2.4-0.5,3.6-0.8c2.4-0.6,4.8-1.2,7.2-1.8c4.8-1.3,9.5-2.6,14.3-3.9
							l14.2-4l1.8-0.5l0.2-0.1l0,0l0,0c0.2,0-0.5,0,0.1,0.5c0.1,0,0,0-0.1,0l-0.4,0.1l-0.9,0.2l-3.6,1c-2.4,0.7-4.7,1.4-7.1,2.2
							c-4.7,1.5-9.3,3.1-13.9,4.9c-2.3,0.9-4.5,1.9-6.7,3c-1.1,0.6-2.2,1.2-3.2,1.8c-1,0.7-2,1.4-2.6,2.4c0.7-1.1,1.8-1.9,2.9-2.6
							c1.1-0.7,2.3-1.4,3.5-2c2.4-1.2,4.9-2.3,7.5-3.4c5.1-2.1,10.2-3.9,15.4-5.6c2-0.6,4.1-1.2,6.1-1.8l1.5-0.4l0.8-0.2l0.4-0.1
							l0.2,0l0.1,0l0,0c-0.2-0.1,0.4,0,0.3,0.3c0,0.1-0.2,0.2-0.2,0.2l0,0l-0.1,0l-3.1,0.9l-12.2,3.4c-8.2,2.2-16.3,4.6-24.6,6.5
							c-0.7,0.1-1.4,0.3-2.1,0.4c-0.4,0.1-0.7,0.1-1.1,0.2c-0.2,0-0.4,0-0.6,0c-0.1,0-0.2,0-0.3,0c-0.1,0-0.1,0-0.2-0.1
							c0,0-0.1-0.1-0.1-0.2c0-0.1,0-0.2,0-0.2c0.2-0.3,0.3-0.3,0.5-0.5c0.2-0.1,0.3-0.2,0.5-0.3c0.3-0.2,0.6-0.3,1-0.5
							c0.7-0.3,1.3-0.6,2-0.9c2.7-1.2,5.3-2.2,8-3.4c2.7-1.1,5.3-2.2,8-3.4c1.3-0.6,2.6-1.2,3.9-1.9
							C268.9,104.4,270.2,103.8,271.3,102.7z"/>
					</g>
				</g>
			</g>
			<g>
				<path class="st2" d="M197.6,42c-3.4,15-9,44.5-9,60.2c0,44.5,0.5,99.8,0.5,150.4c0,69.1-0.8,89.1-1.5,170.3
					c5.7,3.5,26.1,5.2,33.1,5.2c9.8,0,24.9-2.8,28.6-5.5c0-90.9,0.8-122.2,0.8-170c0-26.9,5.7-136.9,10.2-138.7"/>
				<path class="st2" d="M323.1,42c3.4,15,9,44.5,9,60.2c0,44.5-0.5,99.8-0.5,150.4c0,69.1,0.8,89.1,1.5,170.3
					c-5.7,3.5-26.1,5.2-33.1,5.2c-9.8,0-24.9-2.8-28.6-5.5c0-90.9-0.8-122.2-0.8-170c0-26.9-5.7-136.9-10.2-138.7"/>
			</g>
		</g>
		<g>
			<path class="st3" d="M187.6,416.8c5.7,3.5,26.1,5.2,33.1,5.2c9.8,0,24.9-2.8,28.6-5.5"/>
			<path class="st3" d="M333.1,416.8c-5.7,3.5-26.1,5.2-33.1,5.2c-9.8,0-24.9-2.8-28.6-5.5"/>
		</g>
	</g>
</g>
</svg>
